M48
; DRILL file {KiCad 9.0.3} date 2025-08-28T23:08:13-0500
; FORMAT={-:-/ absolute / metric / decimal}
; #@! TF.CreationDate,2025-08-28T23:08:13-05:00
; #@! TF.GenerationSoftware,Kicad,Pcbnew,9.0.3
; #@! TF.FileFunction,Plated,1,2,PTH
FMAT,2
METRIC
; #@! TA.AperFunction,Plated,PTH,ViaDrill
T1C0.300
; #@! TA.AperFunction,Plated,PTH,ViaDrill
T2C0.600
; #@! TA.AperFunction,Plated,PTH,ComponentDrill
T3C1.000
; #@! TA.AperFunction,Plated,PTH,ComponentDrill
T4C1.200
%
G90
G05
T1
X108.8Y-135.9
X124.8Y-135.9
X140.8Y-135.9
X156.8Y-135.9
T2
X117.8Y-102.3
X118.0Y-115.1
X118.8Y-112.5
X119.6Y-104.0
X119.8Y-112.489
X120.823Y-112.594
X120.9Y-106.2
X121.2Y-101.8
X121.825Y-112.676
X122.824Y-112.707
X123.1Y-114.5
X123.824Y-112.674
X124.1Y-114.5
X124.3Y-102.5
X125.099Y-114.539
X126.1Y-114.6
X127.1Y-114.6
X128.099Y-114.639
X128.749Y-113.863
X129.467Y-114.559
X130.589Y-113.731
X130.981Y-116.439
X131.28Y-115.401
X131.382Y-114.381
X133.704Y-116.486
X134.7Y-116.4
X135.696Y-116.493
X136.5Y-119.6
X136.55Y-103.7
X136.696Y-116.511
X138.568Y-101.749
X141.0Y-104.2
X141.3Y-115.1
X141.969Y-104.806
X142.625Y-106.525
X142.625Y-107.675
X142.8Y-117.7
X142.9Y-119.5
X144.376Y-106.9
X144.425Y-109.2
X144.6Y-118.8
X145.0Y-113.625
X145.0Y-114.775
X145.1Y-107.8
X145.575Y-109.2
X145.6Y-120.1
X149.4Y-103.8
X149.4Y-119.8
T3
X108.355Y-95.367
X108.355Y-97.907
X110.895Y-95.367
X110.895Y-97.907
X113.435Y-95.367
X113.435Y-97.907
X115.975Y-95.367
X115.975Y-97.907
X118.515Y-95.367
X118.515Y-97.907
X121.055Y-95.367
X121.055Y-97.907
X123.595Y-95.367
X123.595Y-97.907
X126.135Y-95.367
X126.135Y-97.907
X128.675Y-95.367
X128.675Y-97.907
X131.215Y-95.367
X131.215Y-97.907
X133.755Y-95.367
X133.755Y-97.907
X136.295Y-95.367
X136.295Y-97.907
X138.835Y-95.367
X138.835Y-97.907
X141.375Y-95.367
X141.375Y-97.907
X143.915Y-95.367
X143.915Y-97.907
X146.455Y-95.367
X146.455Y-97.907
X148.995Y-95.367
X148.995Y-97.907
X151.535Y-95.367
X151.535Y-97.907
X154.075Y-95.367
X154.075Y-97.907
X156.615Y-95.367
X156.615Y-97.907
T4
X103.0Y-138.05
X103.0Y-154.05
X103.0Y-170.05
X103.0Y-186.05
X103.0Y-202.05
X107.13Y-135.3
X107.13Y-151.3
X107.13Y-167.3
X107.13Y-183.3
X107.13Y-199.3
X119.0Y-138.05
X119.0Y-154.05
X119.0Y-170.05
X119.0Y-186.05
X119.0Y-202.05
X123.13Y-135.3
X123.13Y-151.3
X123.13Y-167.3
X123.13Y-183.3
X123.13Y-199.3
X135.0Y-138.05
X135.0Y-154.05
X135.0Y-170.05
X135.0Y-186.05
X135.0Y-202.05
X139.13Y-135.3
X139.13Y-151.3
X139.13Y-167.3
X139.13Y-183.3
X139.13Y-199.3
X151.0Y-138.05
X151.0Y-154.05
X151.0Y-170.05
X155.13Y-135.3
X155.13Y-151.3
X155.13Y-167.3
M30
