G04 #@! TF.GenerationSoftware,KiCad,Pcbnew,9.0.3*
G04 #@! TF.CreationDate,2025-08-28T23:08:17-05:00*
G04 #@! TF.ProjectId,PiPhoneV0,50695068-6f6e-4655-9630-2e6b69636164,rev?*
G04 #@! TF.SameCoordinates,Original*
G04 #@! TF.FileFunction,Legend,Top*
G04 #@! TF.FilePolarity,Positive*
%FSLAX46Y46*%
G04 Gerber Fmt 4.6, Leading zero omitted, Abs format (unit mm)*
G04 Created by KiCad (PCBNEW 9.0.3) date 2025-08-28 23:08:17*
%MOMM*%
%LPD*%
G01*
G04 APERTURE LIST*
%ADD10C,0.150000*%
%ADD11C,0.100000*%
%ADD12C,0.140000*%
%ADD13C,0.120000*%
G04 APERTURE END LIST*
D10*
X107696299Y-170225198D02*
X107696299Y-169225198D01*
X107696299Y-169225198D02*
X107934394Y-169225198D01*
X107934394Y-169225198D02*
X108077251Y-169272817D01*
X108077251Y-169272817D02*
X108172489Y-169368055D01*
X108172489Y-169368055D02*
X108220108Y-169463293D01*
X108220108Y-169463293D02*
X108267727Y-169653769D01*
X108267727Y-169653769D02*
X108267727Y-169796626D01*
X108267727Y-169796626D02*
X108220108Y-169987102D01*
X108220108Y-169987102D02*
X108172489Y-170082340D01*
X108172489Y-170082340D02*
X108077251Y-170177579D01*
X108077251Y-170177579D02*
X107934394Y-170225198D01*
X107934394Y-170225198D02*
X107696299Y-170225198D01*
X108601061Y-169225198D02*
X109220108Y-169225198D01*
X109220108Y-169225198D02*
X108886775Y-169606150D01*
X108886775Y-169606150D02*
X109029632Y-169606150D01*
X109029632Y-169606150D02*
X109124870Y-169653769D01*
X109124870Y-169653769D02*
X109172489Y-169701388D01*
X109172489Y-169701388D02*
X109220108Y-169796626D01*
X109220108Y-169796626D02*
X109220108Y-170034721D01*
X109220108Y-170034721D02*
X109172489Y-170129959D01*
X109172489Y-170129959D02*
X109124870Y-170177579D01*
X109124870Y-170177579D02*
X109029632Y-170225198D01*
X109029632Y-170225198D02*
X108743918Y-170225198D01*
X108743918Y-170225198D02*
X108648680Y-170177579D01*
X108648680Y-170177579D02*
X108601061Y-170129959D01*
X139696299Y-170225198D02*
X139696299Y-169225198D01*
X139696299Y-169225198D02*
X139934394Y-169225198D01*
X139934394Y-169225198D02*
X140077251Y-169272817D01*
X140077251Y-169272817D02*
X140172489Y-169368055D01*
X140172489Y-169368055D02*
X140220108Y-169463293D01*
X140220108Y-169463293D02*
X140267727Y-169653769D01*
X140267727Y-169653769D02*
X140267727Y-169796626D01*
X140267727Y-169796626D02*
X140220108Y-169987102D01*
X140220108Y-169987102D02*
X140172489Y-170082340D01*
X140172489Y-170082340D02*
X140077251Y-170177579D01*
X140077251Y-170177579D02*
X139934394Y-170225198D01*
X139934394Y-170225198D02*
X139696299Y-170225198D01*
X140743918Y-170225198D02*
X140934394Y-170225198D01*
X140934394Y-170225198D02*
X141029632Y-170177579D01*
X141029632Y-170177579D02*
X141077251Y-170129959D01*
X141077251Y-170129959D02*
X141172489Y-169987102D01*
X141172489Y-169987102D02*
X141220108Y-169796626D01*
X141220108Y-169796626D02*
X141220108Y-169415674D01*
X141220108Y-169415674D02*
X141172489Y-169320436D01*
X141172489Y-169320436D02*
X141124870Y-169272817D01*
X141124870Y-169272817D02*
X141029632Y-169225198D01*
X141029632Y-169225198D02*
X140839156Y-169225198D01*
X140839156Y-169225198D02*
X140743918Y-169272817D01*
X140743918Y-169272817D02*
X140696299Y-169320436D01*
X140696299Y-169320436D02*
X140648680Y-169415674D01*
X140648680Y-169415674D02*
X140648680Y-169653769D01*
X140648680Y-169653769D02*
X140696299Y-169749007D01*
X140696299Y-169749007D02*
X140743918Y-169796626D01*
X140743918Y-169796626D02*
X140839156Y-169844245D01*
X140839156Y-169844245D02*
X141029632Y-169844245D01*
X141029632Y-169844245D02*
X141124870Y-169796626D01*
X141124870Y-169796626D02*
X141172489Y-169749007D01*
X141172489Y-169749007D02*
X141220108Y-169653769D01*
X144434819Y-112033333D02*
X145149104Y-112033333D01*
X145149104Y-112033333D02*
X145291961Y-112080952D01*
X145291961Y-112080952D02*
X145387200Y-112176190D01*
X145387200Y-112176190D02*
X145434819Y-112319047D01*
X145434819Y-112319047D02*
X145434819Y-112414285D01*
X144434819Y-111652380D02*
X144434819Y-111033333D01*
X144434819Y-111033333D02*
X144815771Y-111366666D01*
X144815771Y-111366666D02*
X144815771Y-111223809D01*
X144815771Y-111223809D02*
X144863390Y-111128571D01*
X144863390Y-111128571D02*
X144911009Y-111080952D01*
X144911009Y-111080952D02*
X145006247Y-111033333D01*
X145006247Y-111033333D02*
X145244342Y-111033333D01*
X145244342Y-111033333D02*
X145339580Y-111080952D01*
X145339580Y-111080952D02*
X145387200Y-111128571D01*
X145387200Y-111128571D02*
X145434819Y-111223809D01*
X145434819Y-111223809D02*
X145434819Y-111509523D01*
X145434819Y-111509523D02*
X145387200Y-111604761D01*
X145387200Y-111604761D02*
X145339580Y-111652380D01*
X105659819Y-204314285D02*
X104659819Y-204314285D01*
X104659819Y-204314285D02*
X104659819Y-204076190D01*
X104659819Y-204076190D02*
X104707438Y-203933333D01*
X104707438Y-203933333D02*
X104802676Y-203838095D01*
X104802676Y-203838095D02*
X104897914Y-203790476D01*
X104897914Y-203790476D02*
X105088390Y-203742857D01*
X105088390Y-203742857D02*
X105231247Y-203742857D01*
X105231247Y-203742857D02*
X105421723Y-203790476D01*
X105421723Y-203790476D02*
X105516961Y-203838095D01*
X105516961Y-203838095D02*
X105612200Y-203933333D01*
X105612200Y-203933333D02*
X105659819Y-204076190D01*
X105659819Y-204076190D02*
X105659819Y-204314285D01*
X105659819Y-202790476D02*
X105659819Y-203361904D01*
X105659819Y-203076190D02*
X104659819Y-203076190D01*
X104659819Y-203076190D02*
X104802676Y-203171428D01*
X104802676Y-203171428D02*
X104897914Y-203266666D01*
X104897914Y-203266666D02*
X104945533Y-203361904D01*
X104659819Y-201933333D02*
X104659819Y-202123809D01*
X104659819Y-202123809D02*
X104707438Y-202219047D01*
X104707438Y-202219047D02*
X104755057Y-202266666D01*
X104755057Y-202266666D02*
X104897914Y-202361904D01*
X104897914Y-202361904D02*
X105088390Y-202409523D01*
X105088390Y-202409523D02*
X105469342Y-202409523D01*
X105469342Y-202409523D02*
X105564580Y-202361904D01*
X105564580Y-202361904D02*
X105612200Y-202314285D01*
X105612200Y-202314285D02*
X105659819Y-202219047D01*
X105659819Y-202219047D02*
X105659819Y-202028571D01*
X105659819Y-202028571D02*
X105612200Y-201933333D01*
X105612200Y-201933333D02*
X105564580Y-201885714D01*
X105564580Y-201885714D02*
X105469342Y-201838095D01*
X105469342Y-201838095D02*
X105231247Y-201838095D01*
X105231247Y-201838095D02*
X105136009Y-201885714D01*
X105136009Y-201885714D02*
X105088390Y-201933333D01*
X105088390Y-201933333D02*
X105040771Y-202028571D01*
X105040771Y-202028571D02*
X105040771Y-202219047D01*
X105040771Y-202219047D02*
X105088390Y-202314285D01*
X105088390Y-202314285D02*
X105136009Y-202361904D01*
X105136009Y-202361904D02*
X105231247Y-202409523D01*
X123696299Y-154225198D02*
X123696299Y-153225198D01*
X123696299Y-153225198D02*
X123934394Y-153225198D01*
X123934394Y-153225198D02*
X124077251Y-153272817D01*
X124077251Y-153272817D02*
X124172489Y-153368055D01*
X124172489Y-153368055D02*
X124220108Y-153463293D01*
X124220108Y-153463293D02*
X124267727Y-153653769D01*
X124267727Y-153653769D02*
X124267727Y-153796626D01*
X124267727Y-153796626D02*
X124220108Y-153987102D01*
X124220108Y-153987102D02*
X124172489Y-154082340D01*
X124172489Y-154082340D02*
X124077251Y-154177579D01*
X124077251Y-154177579D02*
X123934394Y-154225198D01*
X123934394Y-154225198D02*
X123696299Y-154225198D01*
X125172489Y-153225198D02*
X124696299Y-153225198D01*
X124696299Y-153225198D02*
X124648680Y-153701388D01*
X124648680Y-153701388D02*
X124696299Y-153653769D01*
X124696299Y-153653769D02*
X124791537Y-153606150D01*
X124791537Y-153606150D02*
X125029632Y-153606150D01*
X125029632Y-153606150D02*
X125124870Y-153653769D01*
X125124870Y-153653769D02*
X125172489Y-153701388D01*
X125172489Y-153701388D02*
X125220108Y-153796626D01*
X125220108Y-153796626D02*
X125220108Y-154034721D01*
X125220108Y-154034721D02*
X125172489Y-154129959D01*
X125172489Y-154129959D02*
X125124870Y-154177579D01*
X125124870Y-154177579D02*
X125029632Y-154225198D01*
X125029632Y-154225198D02*
X124791537Y-154225198D01*
X124791537Y-154225198D02*
X124696299Y-154177579D01*
X124696299Y-154177579D02*
X124648680Y-154129959D01*
X138504819Y-204114285D02*
X137504819Y-204114285D01*
X137504819Y-204114285D02*
X137504819Y-203876190D01*
X137504819Y-203876190D02*
X137552438Y-203733333D01*
X137552438Y-203733333D02*
X137647676Y-203638095D01*
X137647676Y-203638095D02*
X137742914Y-203590476D01*
X137742914Y-203590476D02*
X137933390Y-203542857D01*
X137933390Y-203542857D02*
X138076247Y-203542857D01*
X138076247Y-203542857D02*
X138266723Y-203590476D01*
X138266723Y-203590476D02*
X138361961Y-203638095D01*
X138361961Y-203638095D02*
X138457200Y-203733333D01*
X138457200Y-203733333D02*
X138504819Y-203876190D01*
X138504819Y-203876190D02*
X138504819Y-204114285D01*
X138504819Y-202590476D02*
X138504819Y-203161904D01*
X138504819Y-202876190D02*
X137504819Y-202876190D01*
X137504819Y-202876190D02*
X137647676Y-202971428D01*
X137647676Y-202971428D02*
X137742914Y-203066666D01*
X137742914Y-203066666D02*
X137790533Y-203161904D01*
X137933390Y-202019047D02*
X137885771Y-202114285D01*
X137885771Y-202114285D02*
X137838152Y-202161904D01*
X137838152Y-202161904D02*
X137742914Y-202209523D01*
X137742914Y-202209523D02*
X137695295Y-202209523D01*
X137695295Y-202209523D02*
X137600057Y-202161904D01*
X137600057Y-202161904D02*
X137552438Y-202114285D01*
X137552438Y-202114285D02*
X137504819Y-202019047D01*
X137504819Y-202019047D02*
X137504819Y-201828571D01*
X137504819Y-201828571D02*
X137552438Y-201733333D01*
X137552438Y-201733333D02*
X137600057Y-201685714D01*
X137600057Y-201685714D02*
X137695295Y-201638095D01*
X137695295Y-201638095D02*
X137742914Y-201638095D01*
X137742914Y-201638095D02*
X137838152Y-201685714D01*
X137838152Y-201685714D02*
X137885771Y-201733333D01*
X137885771Y-201733333D02*
X137933390Y-201828571D01*
X137933390Y-201828571D02*
X137933390Y-202019047D01*
X137933390Y-202019047D02*
X137981009Y-202114285D01*
X137981009Y-202114285D02*
X138028628Y-202161904D01*
X138028628Y-202161904D02*
X138123866Y-202209523D01*
X138123866Y-202209523D02*
X138314342Y-202209523D01*
X138314342Y-202209523D02*
X138409580Y-202161904D01*
X138409580Y-202161904D02*
X138457200Y-202114285D01*
X138457200Y-202114285D02*
X138504819Y-202019047D01*
X138504819Y-202019047D02*
X138504819Y-201828571D01*
X138504819Y-201828571D02*
X138457200Y-201733333D01*
X138457200Y-201733333D02*
X138409580Y-201685714D01*
X138409580Y-201685714D02*
X138314342Y-201638095D01*
X138314342Y-201638095D02*
X138123866Y-201638095D01*
X138123866Y-201638095D02*
X138028628Y-201685714D01*
X138028628Y-201685714D02*
X137981009Y-201733333D01*
X137981009Y-201733333D02*
X137933390Y-201828571D01*
X139696299Y-154225198D02*
X139696299Y-153225198D01*
X139696299Y-153225198D02*
X139934394Y-153225198D01*
X139934394Y-153225198D02*
X140077251Y-153272817D01*
X140077251Y-153272817D02*
X140172489Y-153368055D01*
X140172489Y-153368055D02*
X140220108Y-153463293D01*
X140220108Y-153463293D02*
X140267727Y-153653769D01*
X140267727Y-153653769D02*
X140267727Y-153796626D01*
X140267727Y-153796626D02*
X140220108Y-153987102D01*
X140220108Y-153987102D02*
X140172489Y-154082340D01*
X140172489Y-154082340D02*
X140077251Y-154177579D01*
X140077251Y-154177579D02*
X139934394Y-154225198D01*
X139934394Y-154225198D02*
X139696299Y-154225198D01*
X140839156Y-153653769D02*
X140743918Y-153606150D01*
X140743918Y-153606150D02*
X140696299Y-153558531D01*
X140696299Y-153558531D02*
X140648680Y-153463293D01*
X140648680Y-153463293D02*
X140648680Y-153415674D01*
X140648680Y-153415674D02*
X140696299Y-153320436D01*
X140696299Y-153320436D02*
X140743918Y-153272817D01*
X140743918Y-153272817D02*
X140839156Y-153225198D01*
X140839156Y-153225198D02*
X141029632Y-153225198D01*
X141029632Y-153225198D02*
X141124870Y-153272817D01*
X141124870Y-153272817D02*
X141172489Y-153320436D01*
X141172489Y-153320436D02*
X141220108Y-153415674D01*
X141220108Y-153415674D02*
X141220108Y-153463293D01*
X141220108Y-153463293D02*
X141172489Y-153558531D01*
X141172489Y-153558531D02*
X141124870Y-153606150D01*
X141124870Y-153606150D02*
X141029632Y-153653769D01*
X141029632Y-153653769D02*
X140839156Y-153653769D01*
X140839156Y-153653769D02*
X140743918Y-153701388D01*
X140743918Y-153701388D02*
X140696299Y-153749007D01*
X140696299Y-153749007D02*
X140648680Y-153844245D01*
X140648680Y-153844245D02*
X140648680Y-154034721D01*
X140648680Y-154034721D02*
X140696299Y-154129959D01*
X140696299Y-154129959D02*
X140743918Y-154177579D01*
X140743918Y-154177579D02*
X140839156Y-154225198D01*
X140839156Y-154225198D02*
X141029632Y-154225198D01*
X141029632Y-154225198D02*
X141124870Y-154177579D01*
X141124870Y-154177579D02*
X141172489Y-154129959D01*
X141172489Y-154129959D02*
X141220108Y-154034721D01*
X141220108Y-154034721D02*
X141220108Y-153844245D01*
X141220108Y-153844245D02*
X141172489Y-153749007D01*
X141172489Y-153749007D02*
X141124870Y-153701388D01*
X141124870Y-153701388D02*
X141029632Y-153653769D01*
X155220108Y-170225198D02*
X155220108Y-169225198D01*
X155220108Y-169225198D02*
X155458203Y-169225198D01*
X155458203Y-169225198D02*
X155601060Y-169272817D01*
X155601060Y-169272817D02*
X155696298Y-169368055D01*
X155696298Y-169368055D02*
X155743917Y-169463293D01*
X155743917Y-169463293D02*
X155791536Y-169653769D01*
X155791536Y-169653769D02*
X155791536Y-169796626D01*
X155791536Y-169796626D02*
X155743917Y-169987102D01*
X155743917Y-169987102D02*
X155696298Y-170082340D01*
X155696298Y-170082340D02*
X155601060Y-170177579D01*
X155601060Y-170177579D02*
X155458203Y-170225198D01*
X155458203Y-170225198D02*
X155220108Y-170225198D01*
X156743917Y-170225198D02*
X156172489Y-170225198D01*
X156458203Y-170225198D02*
X156458203Y-169225198D01*
X156458203Y-169225198D02*
X156362965Y-169368055D01*
X156362965Y-169368055D02*
X156267727Y-169463293D01*
X156267727Y-169463293D02*
X156172489Y-169510912D01*
X157124870Y-169320436D02*
X157172489Y-169272817D01*
X157172489Y-169272817D02*
X157267727Y-169225198D01*
X157267727Y-169225198D02*
X157505822Y-169225198D01*
X157505822Y-169225198D02*
X157601060Y-169272817D01*
X157601060Y-169272817D02*
X157648679Y-169320436D01*
X157648679Y-169320436D02*
X157696298Y-169415674D01*
X157696298Y-169415674D02*
X157696298Y-169510912D01*
X157696298Y-169510912D02*
X157648679Y-169653769D01*
X157648679Y-169653769D02*
X157077251Y-170225198D01*
X157077251Y-170225198D02*
X157696298Y-170225198D01*
X155220108Y-138225198D02*
X155220108Y-137225198D01*
X155220108Y-137225198D02*
X155458203Y-137225198D01*
X155458203Y-137225198D02*
X155601060Y-137272817D01*
X155601060Y-137272817D02*
X155696298Y-137368055D01*
X155696298Y-137368055D02*
X155743917Y-137463293D01*
X155743917Y-137463293D02*
X155791536Y-137653769D01*
X155791536Y-137653769D02*
X155791536Y-137796626D01*
X155791536Y-137796626D02*
X155743917Y-137987102D01*
X155743917Y-137987102D02*
X155696298Y-138082340D01*
X155696298Y-138082340D02*
X155601060Y-138177579D01*
X155601060Y-138177579D02*
X155458203Y-138225198D01*
X155458203Y-138225198D02*
X155220108Y-138225198D01*
X156743917Y-138225198D02*
X156172489Y-138225198D01*
X156458203Y-138225198D02*
X156458203Y-137225198D01*
X156458203Y-137225198D02*
X156362965Y-137368055D01*
X156362965Y-137368055D02*
X156267727Y-137463293D01*
X156267727Y-137463293D02*
X156172489Y-137510912D01*
X157362965Y-137225198D02*
X157458203Y-137225198D01*
X157458203Y-137225198D02*
X157553441Y-137272817D01*
X157553441Y-137272817D02*
X157601060Y-137320436D01*
X157601060Y-137320436D02*
X157648679Y-137415674D01*
X157648679Y-137415674D02*
X157696298Y-137606150D01*
X157696298Y-137606150D02*
X157696298Y-137844245D01*
X157696298Y-137844245D02*
X157648679Y-138034721D01*
X157648679Y-138034721D02*
X157601060Y-138129959D01*
X157601060Y-138129959D02*
X157553441Y-138177579D01*
X157553441Y-138177579D02*
X157458203Y-138225198D01*
X157458203Y-138225198D02*
X157362965Y-138225198D01*
X157362965Y-138225198D02*
X157267727Y-138177579D01*
X157267727Y-138177579D02*
X157220108Y-138129959D01*
X157220108Y-138129959D02*
X157172489Y-138034721D01*
X157172489Y-138034721D02*
X157124870Y-137844245D01*
X157124870Y-137844245D02*
X157124870Y-137606150D01*
X157124870Y-137606150D02*
X157172489Y-137415674D01*
X157172489Y-137415674D02*
X157220108Y-137320436D01*
X157220108Y-137320436D02*
X157267727Y-137272817D01*
X157267727Y-137272817D02*
X157362965Y-137225198D01*
X122459819Y-188194285D02*
X121459819Y-188194285D01*
X121459819Y-188194285D02*
X121459819Y-187956190D01*
X121459819Y-187956190D02*
X121507438Y-187813333D01*
X121507438Y-187813333D02*
X121602676Y-187718095D01*
X121602676Y-187718095D02*
X121697914Y-187670476D01*
X121697914Y-187670476D02*
X121888390Y-187622857D01*
X121888390Y-187622857D02*
X122031247Y-187622857D01*
X122031247Y-187622857D02*
X122221723Y-187670476D01*
X122221723Y-187670476D02*
X122316961Y-187718095D01*
X122316961Y-187718095D02*
X122412200Y-187813333D01*
X122412200Y-187813333D02*
X122459819Y-187956190D01*
X122459819Y-187956190D02*
X122459819Y-188194285D01*
X122459819Y-186670476D02*
X122459819Y-187241904D01*
X122459819Y-186956190D02*
X121459819Y-186956190D01*
X121459819Y-186956190D02*
X121602676Y-187051428D01*
X121602676Y-187051428D02*
X121697914Y-187146666D01*
X121697914Y-187146666D02*
X121745533Y-187241904D01*
X121793152Y-185813333D02*
X122459819Y-185813333D01*
X121412200Y-186051428D02*
X122126485Y-186289523D01*
X122126485Y-186289523D02*
X122126485Y-185670476D01*
X129233333Y-111459580D02*
X129185714Y-111507200D01*
X129185714Y-111507200D02*
X129042857Y-111554819D01*
X129042857Y-111554819D02*
X128947619Y-111554819D01*
X128947619Y-111554819D02*
X128804762Y-111507200D01*
X128804762Y-111507200D02*
X128709524Y-111411961D01*
X128709524Y-111411961D02*
X128661905Y-111316723D01*
X128661905Y-111316723D02*
X128614286Y-111126247D01*
X128614286Y-111126247D02*
X128614286Y-110983390D01*
X128614286Y-110983390D02*
X128661905Y-110792914D01*
X128661905Y-110792914D02*
X128709524Y-110697676D01*
X128709524Y-110697676D02*
X128804762Y-110602438D01*
X128804762Y-110602438D02*
X128947619Y-110554819D01*
X128947619Y-110554819D02*
X129042857Y-110554819D01*
X129042857Y-110554819D02*
X129185714Y-110602438D01*
X129185714Y-110602438D02*
X129233333Y-110650057D01*
X130138095Y-110554819D02*
X129661905Y-110554819D01*
X129661905Y-110554819D02*
X129614286Y-111031009D01*
X129614286Y-111031009D02*
X129661905Y-110983390D01*
X129661905Y-110983390D02*
X129757143Y-110935771D01*
X129757143Y-110935771D02*
X129995238Y-110935771D01*
X129995238Y-110935771D02*
X130090476Y-110983390D01*
X130090476Y-110983390D02*
X130138095Y-111031009D01*
X130138095Y-111031009D02*
X130185714Y-111126247D01*
X130185714Y-111126247D02*
X130185714Y-111364342D01*
X130185714Y-111364342D02*
X130138095Y-111459580D01*
X130138095Y-111459580D02*
X130090476Y-111507200D01*
X130090476Y-111507200D02*
X129995238Y-111554819D01*
X129995238Y-111554819D02*
X129757143Y-111554819D01*
X129757143Y-111554819D02*
X129661905Y-111507200D01*
X129661905Y-111507200D02*
X129614286Y-111459580D01*
X122559819Y-204314285D02*
X121559819Y-204314285D01*
X121559819Y-204314285D02*
X121559819Y-204076190D01*
X121559819Y-204076190D02*
X121607438Y-203933333D01*
X121607438Y-203933333D02*
X121702676Y-203838095D01*
X121702676Y-203838095D02*
X121797914Y-203790476D01*
X121797914Y-203790476D02*
X121988390Y-203742857D01*
X121988390Y-203742857D02*
X122131247Y-203742857D01*
X122131247Y-203742857D02*
X122321723Y-203790476D01*
X122321723Y-203790476D02*
X122416961Y-203838095D01*
X122416961Y-203838095D02*
X122512200Y-203933333D01*
X122512200Y-203933333D02*
X122559819Y-204076190D01*
X122559819Y-204076190D02*
X122559819Y-204314285D01*
X122559819Y-202790476D02*
X122559819Y-203361904D01*
X122559819Y-203076190D02*
X121559819Y-203076190D01*
X121559819Y-203076190D02*
X121702676Y-203171428D01*
X121702676Y-203171428D02*
X121797914Y-203266666D01*
X121797914Y-203266666D02*
X121845533Y-203361904D01*
X121559819Y-202457142D02*
X121559819Y-201790476D01*
X121559819Y-201790476D02*
X122559819Y-202219047D01*
X107696299Y-138225198D02*
X107696299Y-137225198D01*
X107696299Y-137225198D02*
X107934394Y-137225198D01*
X107934394Y-137225198D02*
X108077251Y-137272817D01*
X108077251Y-137272817D02*
X108172489Y-137368055D01*
X108172489Y-137368055D02*
X108220108Y-137463293D01*
X108220108Y-137463293D02*
X108267727Y-137653769D01*
X108267727Y-137653769D02*
X108267727Y-137796626D01*
X108267727Y-137796626D02*
X108220108Y-137987102D01*
X108220108Y-137987102D02*
X108172489Y-138082340D01*
X108172489Y-138082340D02*
X108077251Y-138177579D01*
X108077251Y-138177579D02*
X107934394Y-138225198D01*
X107934394Y-138225198D02*
X107696299Y-138225198D01*
X109220108Y-138225198D02*
X108648680Y-138225198D01*
X108934394Y-138225198D02*
X108934394Y-137225198D01*
X108934394Y-137225198D02*
X108839156Y-137368055D01*
X108839156Y-137368055D02*
X108743918Y-137463293D01*
X108743918Y-137463293D02*
X108648680Y-137510912D01*
X126404819Y-109861904D02*
X127214342Y-109861904D01*
X127214342Y-109861904D02*
X127309580Y-109814285D01*
X127309580Y-109814285D02*
X127357200Y-109766666D01*
X127357200Y-109766666D02*
X127404819Y-109671428D01*
X127404819Y-109671428D02*
X127404819Y-109480952D01*
X127404819Y-109480952D02*
X127357200Y-109385714D01*
X127357200Y-109385714D02*
X127309580Y-109338095D01*
X127309580Y-109338095D02*
X127214342Y-109290476D01*
X127214342Y-109290476D02*
X126404819Y-109290476D01*
X126500057Y-108861904D02*
X126452438Y-108814285D01*
X126452438Y-108814285D02*
X126404819Y-108719047D01*
X126404819Y-108719047D02*
X126404819Y-108480952D01*
X126404819Y-108480952D02*
X126452438Y-108385714D01*
X126452438Y-108385714D02*
X126500057Y-108338095D01*
X126500057Y-108338095D02*
X126595295Y-108290476D01*
X126595295Y-108290476D02*
X126690533Y-108290476D01*
X126690533Y-108290476D02*
X126833390Y-108338095D01*
X126833390Y-108338095D02*
X127404819Y-108909523D01*
X127404819Y-108909523D02*
X127404819Y-108290476D01*
X139696299Y-138225198D02*
X139696299Y-137225198D01*
X139696299Y-137225198D02*
X139934394Y-137225198D01*
X139934394Y-137225198D02*
X140077251Y-137272817D01*
X140077251Y-137272817D02*
X140172489Y-137368055D01*
X140172489Y-137368055D02*
X140220108Y-137463293D01*
X140220108Y-137463293D02*
X140267727Y-137653769D01*
X140267727Y-137653769D02*
X140267727Y-137796626D01*
X140267727Y-137796626D02*
X140220108Y-137987102D01*
X140220108Y-137987102D02*
X140172489Y-138082340D01*
X140172489Y-138082340D02*
X140077251Y-138177579D01*
X140077251Y-138177579D02*
X139934394Y-138225198D01*
X139934394Y-138225198D02*
X139696299Y-138225198D01*
X140601061Y-137225198D02*
X141267727Y-137225198D01*
X141267727Y-137225198D02*
X140839156Y-138225198D01*
X131433333Y-110634819D02*
X131100000Y-110158628D01*
X130861905Y-110634819D02*
X130861905Y-109634819D01*
X130861905Y-109634819D02*
X131242857Y-109634819D01*
X131242857Y-109634819D02*
X131338095Y-109682438D01*
X131338095Y-109682438D02*
X131385714Y-109730057D01*
X131385714Y-109730057D02*
X131433333Y-109825295D01*
X131433333Y-109825295D02*
X131433333Y-109968152D01*
X131433333Y-109968152D02*
X131385714Y-110063390D01*
X131385714Y-110063390D02*
X131338095Y-110111009D01*
X131338095Y-110111009D02*
X131242857Y-110158628D01*
X131242857Y-110158628D02*
X130861905Y-110158628D01*
X132385714Y-110634819D02*
X131814286Y-110634819D01*
X132100000Y-110634819D02*
X132100000Y-109634819D01*
X132100000Y-109634819D02*
X132004762Y-109777676D01*
X132004762Y-109777676D02*
X131909524Y-109872914D01*
X131909524Y-109872914D02*
X131814286Y-109920533D01*
X135654819Y-109169285D02*
X134654819Y-109169285D01*
X134654819Y-109169285D02*
X134654819Y-108931190D01*
X134654819Y-108931190D02*
X134702438Y-108788333D01*
X134702438Y-108788333D02*
X134797676Y-108693095D01*
X134797676Y-108693095D02*
X134892914Y-108645476D01*
X134892914Y-108645476D02*
X135083390Y-108597857D01*
X135083390Y-108597857D02*
X135226247Y-108597857D01*
X135226247Y-108597857D02*
X135416723Y-108645476D01*
X135416723Y-108645476D02*
X135511961Y-108693095D01*
X135511961Y-108693095D02*
X135607200Y-108788333D01*
X135607200Y-108788333D02*
X135654819Y-108931190D01*
X135654819Y-108931190D02*
X135654819Y-109169285D01*
X134750057Y-108216904D02*
X134702438Y-108169285D01*
X134702438Y-108169285D02*
X134654819Y-108074047D01*
X134654819Y-108074047D02*
X134654819Y-107835952D01*
X134654819Y-107835952D02*
X134702438Y-107740714D01*
X134702438Y-107740714D02*
X134750057Y-107693095D01*
X134750057Y-107693095D02*
X134845295Y-107645476D01*
X134845295Y-107645476D02*
X134940533Y-107645476D01*
X134940533Y-107645476D02*
X135083390Y-107693095D01*
X135083390Y-107693095D02*
X135654819Y-108264523D01*
X135654819Y-108264523D02*
X135654819Y-107645476D01*
X134654819Y-107026428D02*
X134654819Y-106931190D01*
X134654819Y-106931190D02*
X134702438Y-106835952D01*
X134702438Y-106835952D02*
X134750057Y-106788333D01*
X134750057Y-106788333D02*
X134845295Y-106740714D01*
X134845295Y-106740714D02*
X135035771Y-106693095D01*
X135035771Y-106693095D02*
X135273866Y-106693095D01*
X135273866Y-106693095D02*
X135464342Y-106740714D01*
X135464342Y-106740714D02*
X135559580Y-106788333D01*
X135559580Y-106788333D02*
X135607200Y-106835952D01*
X135607200Y-106835952D02*
X135654819Y-106931190D01*
X135654819Y-106931190D02*
X135654819Y-107026428D01*
X135654819Y-107026428D02*
X135607200Y-107121666D01*
X135607200Y-107121666D02*
X135559580Y-107169285D01*
X135559580Y-107169285D02*
X135464342Y-107216904D01*
X135464342Y-107216904D02*
X135273866Y-107264523D01*
X135273866Y-107264523D02*
X135035771Y-107264523D01*
X135035771Y-107264523D02*
X134845295Y-107216904D01*
X134845295Y-107216904D02*
X134750057Y-107169285D01*
X134750057Y-107169285D02*
X134702438Y-107121666D01*
X134702438Y-107121666D02*
X134654819Y-107026428D01*
X123696299Y-138225198D02*
X123696299Y-137225198D01*
X123696299Y-137225198D02*
X123934394Y-137225198D01*
X123934394Y-137225198D02*
X124077251Y-137272817D01*
X124077251Y-137272817D02*
X124172489Y-137368055D01*
X124172489Y-137368055D02*
X124220108Y-137463293D01*
X124220108Y-137463293D02*
X124267727Y-137653769D01*
X124267727Y-137653769D02*
X124267727Y-137796626D01*
X124267727Y-137796626D02*
X124220108Y-137987102D01*
X124220108Y-137987102D02*
X124172489Y-138082340D01*
X124172489Y-138082340D02*
X124077251Y-138177579D01*
X124077251Y-138177579D02*
X123934394Y-138225198D01*
X123934394Y-138225198D02*
X123696299Y-138225198D01*
X125124870Y-137558531D02*
X125124870Y-138225198D01*
X124886775Y-137177579D02*
X124648680Y-137891864D01*
X124648680Y-137891864D02*
X125267727Y-137891864D01*
X155220108Y-154225198D02*
X155220108Y-153225198D01*
X155220108Y-153225198D02*
X155458203Y-153225198D01*
X155458203Y-153225198D02*
X155601060Y-153272817D01*
X155601060Y-153272817D02*
X155696298Y-153368055D01*
X155696298Y-153368055D02*
X155743917Y-153463293D01*
X155743917Y-153463293D02*
X155791536Y-153653769D01*
X155791536Y-153653769D02*
X155791536Y-153796626D01*
X155791536Y-153796626D02*
X155743917Y-153987102D01*
X155743917Y-153987102D02*
X155696298Y-154082340D01*
X155696298Y-154082340D02*
X155601060Y-154177579D01*
X155601060Y-154177579D02*
X155458203Y-154225198D01*
X155458203Y-154225198D02*
X155220108Y-154225198D01*
X156743917Y-154225198D02*
X156172489Y-154225198D01*
X156458203Y-154225198D02*
X156458203Y-153225198D01*
X156458203Y-153225198D02*
X156362965Y-153368055D01*
X156362965Y-153368055D02*
X156267727Y-153463293D01*
X156267727Y-153463293D02*
X156172489Y-153510912D01*
X157696298Y-154225198D02*
X157124870Y-154225198D01*
X157410584Y-154225198D02*
X157410584Y-153225198D01*
X157410584Y-153225198D02*
X157315346Y-153368055D01*
X157315346Y-153368055D02*
X157220108Y-153463293D01*
X157220108Y-153463293D02*
X157124870Y-153510912D01*
X129233333Y-99604819D02*
X128757143Y-99604819D01*
X128757143Y-99604819D02*
X128757143Y-98604819D01*
X130090476Y-99604819D02*
X129519048Y-99604819D01*
X129804762Y-99604819D02*
X129804762Y-98604819D01*
X129804762Y-98604819D02*
X129709524Y-98747676D01*
X129709524Y-98747676D02*
X129614286Y-98842914D01*
X129614286Y-98842914D02*
X129519048Y-98890533D01*
X123696299Y-170225198D02*
X123696299Y-169225198D01*
X123696299Y-169225198D02*
X123934394Y-169225198D01*
X123934394Y-169225198D02*
X124077251Y-169272817D01*
X124077251Y-169272817D02*
X124172489Y-169368055D01*
X124172489Y-169368055D02*
X124220108Y-169463293D01*
X124220108Y-169463293D02*
X124267727Y-169653769D01*
X124267727Y-169653769D02*
X124267727Y-169796626D01*
X124267727Y-169796626D02*
X124220108Y-169987102D01*
X124220108Y-169987102D02*
X124172489Y-170082340D01*
X124172489Y-170082340D02*
X124077251Y-170177579D01*
X124077251Y-170177579D02*
X123934394Y-170225198D01*
X123934394Y-170225198D02*
X123696299Y-170225198D01*
X125124870Y-169225198D02*
X124934394Y-169225198D01*
X124934394Y-169225198D02*
X124839156Y-169272817D01*
X124839156Y-169272817D02*
X124791537Y-169320436D01*
X124791537Y-169320436D02*
X124696299Y-169463293D01*
X124696299Y-169463293D02*
X124648680Y-169653769D01*
X124648680Y-169653769D02*
X124648680Y-170034721D01*
X124648680Y-170034721D02*
X124696299Y-170129959D01*
X124696299Y-170129959D02*
X124743918Y-170177579D01*
X124743918Y-170177579D02*
X124839156Y-170225198D01*
X124839156Y-170225198D02*
X125029632Y-170225198D01*
X125029632Y-170225198D02*
X125124870Y-170177579D01*
X125124870Y-170177579D02*
X125172489Y-170129959D01*
X125172489Y-170129959D02*
X125220108Y-170034721D01*
X125220108Y-170034721D02*
X125220108Y-169796626D01*
X125220108Y-169796626D02*
X125172489Y-169701388D01*
X125172489Y-169701388D02*
X125124870Y-169653769D01*
X125124870Y-169653769D02*
X125029632Y-169606150D01*
X125029632Y-169606150D02*
X124839156Y-169606150D01*
X124839156Y-169606150D02*
X124743918Y-169653769D01*
X124743918Y-169653769D02*
X124696299Y-169701388D01*
X124696299Y-169701388D02*
X124648680Y-169796626D01*
X105885714Y-188834819D02*
X105885714Y-187834819D01*
X105885714Y-187834819D02*
X106123809Y-187834819D01*
X106123809Y-187834819D02*
X106266666Y-187882438D01*
X106266666Y-187882438D02*
X106361904Y-187977676D01*
X106361904Y-187977676D02*
X106409523Y-188072914D01*
X106409523Y-188072914D02*
X106457142Y-188263390D01*
X106457142Y-188263390D02*
X106457142Y-188406247D01*
X106457142Y-188406247D02*
X106409523Y-188596723D01*
X106409523Y-188596723D02*
X106361904Y-188691961D01*
X106361904Y-188691961D02*
X106266666Y-188787200D01*
X106266666Y-188787200D02*
X106123809Y-188834819D01*
X106123809Y-188834819D02*
X105885714Y-188834819D01*
X107409523Y-188834819D02*
X106838095Y-188834819D01*
X107123809Y-188834819D02*
X107123809Y-187834819D01*
X107123809Y-187834819D02*
X107028571Y-187977676D01*
X107028571Y-187977676D02*
X106933333Y-188072914D01*
X106933333Y-188072914D02*
X106838095Y-188120533D01*
X107742857Y-187834819D02*
X108361904Y-187834819D01*
X108361904Y-187834819D02*
X108028571Y-188215771D01*
X108028571Y-188215771D02*
X108171428Y-188215771D01*
X108171428Y-188215771D02*
X108266666Y-188263390D01*
X108266666Y-188263390D02*
X108314285Y-188311009D01*
X108314285Y-188311009D02*
X108361904Y-188406247D01*
X108361904Y-188406247D02*
X108361904Y-188644342D01*
X108361904Y-188644342D02*
X108314285Y-188739580D01*
X108314285Y-188739580D02*
X108266666Y-188787200D01*
X108266666Y-188787200D02*
X108171428Y-188834819D01*
X108171428Y-188834819D02*
X107885714Y-188834819D01*
X107885714Y-188834819D02*
X107790476Y-188787200D01*
X107790476Y-188787200D02*
X107742857Y-188739580D01*
X138504819Y-188194285D02*
X137504819Y-188194285D01*
X137504819Y-188194285D02*
X137504819Y-187956190D01*
X137504819Y-187956190D02*
X137552438Y-187813333D01*
X137552438Y-187813333D02*
X137647676Y-187718095D01*
X137647676Y-187718095D02*
X137742914Y-187670476D01*
X137742914Y-187670476D02*
X137933390Y-187622857D01*
X137933390Y-187622857D02*
X138076247Y-187622857D01*
X138076247Y-187622857D02*
X138266723Y-187670476D01*
X138266723Y-187670476D02*
X138361961Y-187718095D01*
X138361961Y-187718095D02*
X138457200Y-187813333D01*
X138457200Y-187813333D02*
X138504819Y-187956190D01*
X138504819Y-187956190D02*
X138504819Y-188194285D01*
X138504819Y-186670476D02*
X138504819Y-187241904D01*
X138504819Y-186956190D02*
X137504819Y-186956190D01*
X137504819Y-186956190D02*
X137647676Y-187051428D01*
X137647676Y-187051428D02*
X137742914Y-187146666D01*
X137742914Y-187146666D02*
X137790533Y-187241904D01*
X137504819Y-185765714D02*
X137504819Y-186241904D01*
X137504819Y-186241904D02*
X137981009Y-186289523D01*
X137981009Y-186289523D02*
X137933390Y-186241904D01*
X137933390Y-186241904D02*
X137885771Y-186146666D01*
X137885771Y-186146666D02*
X137885771Y-185908571D01*
X137885771Y-185908571D02*
X137933390Y-185813333D01*
X137933390Y-185813333D02*
X137981009Y-185765714D01*
X137981009Y-185765714D02*
X138076247Y-185718095D01*
X138076247Y-185718095D02*
X138314342Y-185718095D01*
X138314342Y-185718095D02*
X138409580Y-185765714D01*
X138409580Y-185765714D02*
X138457200Y-185813333D01*
X138457200Y-185813333D02*
X138504819Y-185908571D01*
X138504819Y-185908571D02*
X138504819Y-186146666D01*
X138504819Y-186146666D02*
X138457200Y-186241904D01*
X138457200Y-186241904D02*
X138409580Y-186289523D01*
X136733333Y-111454819D02*
X136400000Y-110978628D01*
X136161905Y-111454819D02*
X136161905Y-110454819D01*
X136161905Y-110454819D02*
X136542857Y-110454819D01*
X136542857Y-110454819D02*
X136638095Y-110502438D01*
X136638095Y-110502438D02*
X136685714Y-110550057D01*
X136685714Y-110550057D02*
X136733333Y-110645295D01*
X136733333Y-110645295D02*
X136733333Y-110788152D01*
X136733333Y-110788152D02*
X136685714Y-110883390D01*
X136685714Y-110883390D02*
X136638095Y-110931009D01*
X136638095Y-110931009D02*
X136542857Y-110978628D01*
X136542857Y-110978628D02*
X136161905Y-110978628D01*
X137114286Y-110550057D02*
X137161905Y-110502438D01*
X137161905Y-110502438D02*
X137257143Y-110454819D01*
X137257143Y-110454819D02*
X137495238Y-110454819D01*
X137495238Y-110454819D02*
X137590476Y-110502438D01*
X137590476Y-110502438D02*
X137638095Y-110550057D01*
X137638095Y-110550057D02*
X137685714Y-110645295D01*
X137685714Y-110645295D02*
X137685714Y-110740533D01*
X137685714Y-110740533D02*
X137638095Y-110883390D01*
X137638095Y-110883390D02*
X137066667Y-111454819D01*
X137066667Y-111454819D02*
X137685714Y-111454819D01*
X107696299Y-154225198D02*
X107696299Y-153225198D01*
X107696299Y-153225198D02*
X107934394Y-153225198D01*
X107934394Y-153225198D02*
X108077251Y-153272817D01*
X108077251Y-153272817D02*
X108172489Y-153368055D01*
X108172489Y-153368055D02*
X108220108Y-153463293D01*
X108220108Y-153463293D02*
X108267727Y-153653769D01*
X108267727Y-153653769D02*
X108267727Y-153796626D01*
X108267727Y-153796626D02*
X108220108Y-153987102D01*
X108220108Y-153987102D02*
X108172489Y-154082340D01*
X108172489Y-154082340D02*
X108077251Y-154177579D01*
X108077251Y-154177579D02*
X107934394Y-154225198D01*
X107934394Y-154225198D02*
X107696299Y-154225198D01*
X108648680Y-153320436D02*
X108696299Y-153272817D01*
X108696299Y-153272817D02*
X108791537Y-153225198D01*
X108791537Y-153225198D02*
X109029632Y-153225198D01*
X109029632Y-153225198D02*
X109124870Y-153272817D01*
X109124870Y-153272817D02*
X109172489Y-153320436D01*
X109172489Y-153320436D02*
X109220108Y-153415674D01*
X109220108Y-153415674D02*
X109220108Y-153510912D01*
X109220108Y-153510912D02*
X109172489Y-153653769D01*
X109172489Y-153653769D02*
X108601061Y-154225198D01*
X108601061Y-154225198D02*
X109220108Y-154225198D01*
D11*
X109344394Y-168720379D02*
G75*
G02*
X109244394Y-168720379I-50000J0D01*
G01*
X109244394Y-168720379D02*
G75*
G02*
X109344394Y-168720379I50000J0D01*
G01*
D12*
X112500000Y-190500000D02*
X112500000Y-189500000D01*
X112500000Y-202500000D02*
X112500000Y-201500000D01*
X112500000Y-202500000D02*
X113500000Y-202500000D01*
X113500000Y-189500000D02*
X112500000Y-189500000D01*
X124500000Y-202500000D02*
X125500000Y-202500000D01*
X125500000Y-189500000D02*
X124500000Y-189500000D01*
X125500000Y-189500000D02*
X125500000Y-190500000D01*
X125500000Y-201500000D02*
X125500000Y-202500000D01*
D11*
X141344394Y-168720379D02*
G75*
G02*
X141244394Y-168720379I-50000J0D01*
G01*
X141244394Y-168720379D02*
G75*
G02*
X141344394Y-168720379I50000J0D01*
G01*
D12*
X96500000Y-190500000D02*
X96500000Y-189500000D01*
X96500000Y-202500000D02*
X96500000Y-201500000D01*
X96500000Y-202500000D02*
X97500000Y-202500000D01*
X97500000Y-189500000D02*
X96500000Y-189500000D01*
X108500000Y-202500000D02*
X109500000Y-202500000D01*
X109500000Y-189500000D02*
X108500000Y-189500000D01*
X109500000Y-189500000D02*
X109500000Y-190500000D01*
X109500000Y-201500000D02*
X109500000Y-202500000D01*
X128500000Y-190500000D02*
X128500000Y-189500000D01*
X128500000Y-202500000D02*
X128500000Y-201500000D01*
X128500000Y-202500000D02*
X129500000Y-202500000D01*
X129500000Y-189500000D02*
X128500000Y-189500000D01*
X140500000Y-202500000D02*
X141500000Y-202500000D01*
X141500000Y-189500000D02*
X140500000Y-189500000D01*
X141500000Y-189500000D02*
X141500000Y-190500000D01*
X141500000Y-201500000D02*
X141500000Y-202500000D01*
X128500000Y-142500000D02*
X128500000Y-141500000D01*
X128500000Y-154500000D02*
X128500000Y-153500000D01*
X128500000Y-154500000D02*
X129500000Y-154500000D01*
X129500000Y-141500000D02*
X128500000Y-141500000D01*
X140500000Y-154500000D02*
X141500000Y-154500000D01*
X141500000Y-141500000D02*
X140500000Y-141500000D01*
X141500000Y-141500000D02*
X141500000Y-142500000D01*
X141500000Y-153500000D02*
X141500000Y-154500000D01*
D13*
X146180000Y-119160000D02*
X146770000Y-119160000D01*
X146420000Y-101490000D02*
X146420000Y-102260000D01*
X146420000Y-102260000D02*
X146770000Y-102260000D01*
X146420000Y-121140000D02*
X146420000Y-121910000D01*
X146420000Y-121910000D02*
X148470000Y-121910000D01*
X146770000Y-102260000D02*
X146770000Y-104240000D01*
X146770000Y-119160000D02*
X146770000Y-121140000D01*
X146770000Y-121140000D02*
X146420000Y-121140000D01*
X148470000Y-101490000D02*
X146420000Y-101490000D01*
X150290000Y-121910000D02*
X150590000Y-121910000D01*
X150590000Y-101490000D02*
X150290000Y-101490000D01*
X150590000Y-102290000D02*
X150590000Y-101490000D01*
X150590000Y-121110000D02*
X151890000Y-121110000D01*
X150590000Y-121910000D02*
X150590000Y-121110000D01*
X151890000Y-102290000D02*
X150590000Y-102290000D01*
X151890000Y-121110000D02*
X151890000Y-102290000D01*
D11*
X106305000Y-203960000D02*
G75*
G02*
X106205000Y-203960000I-50000J0D01*
G01*
X106205000Y-203960000D02*
G75*
G02*
X106305000Y-203960000I50000J0D01*
G01*
X125344394Y-152720379D02*
G75*
G02*
X125244394Y-152720379I-50000J0D01*
G01*
X125244394Y-152720379D02*
G75*
G02*
X125344394Y-152720379I50000J0D01*
G01*
D13*
X116350000Y-112000000D02*
X116350000Y-113740000D01*
X116350000Y-117800000D02*
X116350000Y-116460000D01*
X117840000Y-117800000D02*
X116350000Y-117800000D01*
X138160000Y-117800000D02*
X138160000Y-119000000D01*
X138160000Y-117800000D02*
X139650000Y-117800000D01*
X139650000Y-112000000D02*
X116350000Y-112000000D01*
X139650000Y-113740000D02*
X139650000Y-112000000D01*
X139650000Y-117800000D02*
X139650000Y-116460000D01*
D12*
X96500000Y-126500000D02*
X96500000Y-125500000D01*
X96500000Y-138500000D02*
X96500000Y-137500000D01*
X96500000Y-138500000D02*
X97500000Y-138500000D01*
X97500000Y-125500000D02*
X96500000Y-125500000D01*
X108500000Y-138500000D02*
X109500000Y-138500000D01*
X109500000Y-125500000D02*
X108500000Y-125500000D01*
X109500000Y-125500000D02*
X109500000Y-126500000D01*
X109500000Y-137500000D02*
X109500000Y-138500000D01*
D11*
X139150000Y-203760000D02*
G75*
G02*
X139050000Y-203760000I-50000J0D01*
G01*
X139050000Y-203760000D02*
G75*
G02*
X139150000Y-203760000I50000J0D01*
G01*
X141344394Y-152720379D02*
G75*
G02*
X141244394Y-152720379I-50000J0D01*
G01*
X141244394Y-152720379D02*
G75*
G02*
X141344394Y-152720379I50000J0D01*
G01*
X157344394Y-168720379D02*
G75*
G02*
X157244394Y-168720379I-50000J0D01*
G01*
X157244394Y-168720379D02*
G75*
G02*
X157344394Y-168720379I50000J0D01*
G01*
X157344394Y-136720379D02*
G75*
G02*
X157244394Y-136720379I-50000J0D01*
G01*
X157244394Y-136720379D02*
G75*
G02*
X157344394Y-136720379I50000J0D01*
G01*
D12*
X144500000Y-126500000D02*
X144500000Y-125500000D01*
X144500000Y-138500000D02*
X144500000Y-137500000D01*
X144500000Y-138500000D02*
X145500000Y-138500000D01*
X145500000Y-125500000D02*
X144500000Y-125500000D01*
X156500000Y-138500000D02*
X157500000Y-138500000D01*
X157500000Y-125500000D02*
X156500000Y-125500000D01*
X157500000Y-125500000D02*
X157500000Y-126500000D01*
X157500000Y-137500000D02*
X157500000Y-138500000D01*
X128500000Y-158500000D02*
X128500000Y-157500000D01*
X128500000Y-170500000D02*
X128500000Y-169500000D01*
X128500000Y-170500000D02*
X129500000Y-170500000D01*
X129500000Y-157500000D02*
X128500000Y-157500000D01*
X140500000Y-170500000D02*
X141500000Y-170500000D01*
X141500000Y-157500000D02*
X140500000Y-157500000D01*
X141500000Y-157500000D02*
X141500000Y-158500000D01*
X141500000Y-169500000D02*
X141500000Y-170500000D01*
D11*
X123105000Y-187840000D02*
G75*
G02*
X123005000Y-187840000I-50000J0D01*
G01*
X123005000Y-187840000D02*
G75*
G02*
X123105000Y-187840000I50000J0D01*
G01*
D12*
X96500000Y-174500000D02*
X96500000Y-173500000D01*
X96500000Y-186500000D02*
X96500000Y-185500000D01*
X96500000Y-186500000D02*
X97500000Y-186500000D01*
X97500000Y-173500000D02*
X96500000Y-173500000D01*
X108500000Y-186500000D02*
X109500000Y-186500000D01*
X109500000Y-173500000D02*
X108500000Y-173500000D01*
X109500000Y-173500000D02*
X109500000Y-174500000D01*
X109500000Y-185500000D02*
X109500000Y-186500000D01*
D11*
X123205000Y-203960000D02*
G75*
G02*
X123105000Y-203960000I-50000J0D01*
G01*
X123105000Y-203960000D02*
G75*
G02*
X123205000Y-203960000I50000J0D01*
G01*
D12*
X112500000Y-174500000D02*
X112500000Y-173500000D01*
X112500000Y-186500000D02*
X112500000Y-185500000D01*
X112500000Y-186500000D02*
X113500000Y-186500000D01*
X113500000Y-173500000D02*
X112500000Y-173500000D01*
X124500000Y-186500000D02*
X125500000Y-186500000D01*
X125500000Y-173500000D02*
X124500000Y-173500000D01*
X125500000Y-173500000D02*
X125500000Y-174500000D01*
X125500000Y-185500000D02*
X125500000Y-186500000D01*
D11*
X109344394Y-136720379D02*
G75*
G02*
X109244394Y-136720379I-50000J0D01*
G01*
X109244394Y-136720379D02*
G75*
G02*
X109344394Y-136720379I50000J0D01*
G01*
D13*
X127790000Y-110100000D02*
X127790000Y-108100000D01*
X130010000Y-110100000D02*
X130010000Y-108100000D01*
X127890000Y-110620000D02*
X127610000Y-110340000D01*
X127890000Y-110340000D01*
X127890000Y-110620000D01*
G36*
X127890000Y-110620000D02*
G01*
X127610000Y-110340000D01*
X127890000Y-110340000D01*
X127890000Y-110620000D01*
G37*
D11*
X141344394Y-136720379D02*
G75*
G02*
X141244394Y-136720379I-50000J0D01*
G01*
X141244394Y-136720379D02*
G75*
G02*
X141344394Y-136720379I50000J0D01*
G01*
D12*
X112500000Y-142500000D02*
X112500000Y-141500000D01*
X112500000Y-154500000D02*
X112500000Y-153500000D01*
X112500000Y-154500000D02*
X113500000Y-154500000D01*
X113500000Y-141500000D02*
X112500000Y-141500000D01*
X124500000Y-154500000D02*
X125500000Y-154500000D01*
X125500000Y-141500000D02*
X124500000Y-141500000D01*
X125500000Y-141500000D02*
X125500000Y-142500000D01*
X125500000Y-153500000D02*
X125500000Y-154500000D01*
X112500000Y-126500000D02*
X112500000Y-125500000D01*
X112500000Y-138500000D02*
X112500000Y-137500000D01*
X112500000Y-138500000D02*
X113500000Y-138500000D01*
X113500000Y-125500000D02*
X112500000Y-125500000D01*
X124500000Y-138500000D02*
X125500000Y-138500000D01*
X125500000Y-125500000D02*
X124500000Y-125500000D01*
X125500000Y-125500000D02*
X125500000Y-126500000D01*
X125500000Y-137500000D02*
X125500000Y-138500000D01*
D13*
X134200000Y-109960000D02*
X134200000Y-105950000D01*
X134200000Y-109960000D02*
X136200000Y-109960000D01*
X136200000Y-109960000D02*
X136200000Y-105950000D01*
D12*
X112500000Y-158500000D02*
X112500000Y-157500000D01*
X112500000Y-170500000D02*
X112500000Y-169500000D01*
X112500000Y-170500000D02*
X113500000Y-170500000D01*
X113500000Y-157500000D02*
X112500000Y-157500000D01*
X124500000Y-170500000D02*
X125500000Y-170500000D01*
X125500000Y-157500000D02*
X124500000Y-157500000D01*
X125500000Y-157500000D02*
X125500000Y-158500000D01*
X125500000Y-169500000D02*
X125500000Y-170500000D01*
X128500000Y-174500000D02*
X128500000Y-173500000D01*
X128500000Y-186500000D02*
X128500000Y-185500000D01*
X128500000Y-186500000D02*
X129500000Y-186500000D01*
X129500000Y-173500000D02*
X128500000Y-173500000D01*
X140500000Y-186500000D02*
X141500000Y-186500000D01*
X141500000Y-173500000D02*
X140500000Y-173500000D01*
X141500000Y-173500000D02*
X141500000Y-174500000D01*
X141500000Y-185500000D02*
X141500000Y-186500000D01*
X96500000Y-142500000D02*
X96500000Y-141500000D01*
X96500000Y-154500000D02*
X96500000Y-153500000D01*
X96500000Y-154500000D02*
X97500000Y-154500000D01*
X97500000Y-141500000D02*
X96500000Y-141500000D01*
X108500000Y-154500000D02*
X109500000Y-154500000D01*
X109500000Y-141500000D02*
X108500000Y-141500000D01*
X109500000Y-141500000D02*
X109500000Y-142500000D01*
X109500000Y-153500000D02*
X109500000Y-154500000D01*
D11*
X125344394Y-136720379D02*
G75*
G02*
X125244394Y-136720379I-50000J0D01*
G01*
X125244394Y-136720379D02*
G75*
G02*
X125344394Y-136720379I50000J0D01*
G01*
X157344394Y-152720379D02*
G75*
G02*
X157244394Y-152720379I-50000J0D01*
G01*
X157244394Y-152720379D02*
G75*
G02*
X157344394Y-152720379I50000J0D01*
G01*
D12*
X144500000Y-142500000D02*
X144500000Y-141500000D01*
X144500000Y-154500000D02*
X144500000Y-153500000D01*
X144500000Y-154500000D02*
X145500000Y-154500000D01*
X145500000Y-141500000D02*
X144500000Y-141500000D01*
X156500000Y-154500000D02*
X157500000Y-154500000D01*
X157500000Y-141500000D02*
X156500000Y-141500000D01*
X157500000Y-141500000D02*
X157500000Y-142500000D01*
X157500000Y-153500000D02*
X157500000Y-154500000D01*
D13*
X126100000Y-100400000D02*
X132700000Y-100400000D01*
X126100000Y-102100000D02*
X126100000Y-100400000D01*
X126100000Y-106800000D02*
X126100000Y-105100000D01*
X132700000Y-100400000D02*
X132700000Y-102100000D01*
X132700000Y-105100000D02*
X132700000Y-106800000D01*
X132700000Y-106800000D02*
X126100000Y-106800000D01*
D11*
X125344394Y-168720379D02*
G75*
G02*
X125244394Y-168720379I-50000J0D01*
G01*
X125244394Y-168720379D02*
G75*
G02*
X125344394Y-168720379I50000J0D01*
G01*
D12*
X144500000Y-158500000D02*
X144500000Y-157500000D01*
X144500000Y-170500000D02*
X144500000Y-169500000D01*
X144500000Y-170500000D02*
X145500000Y-170500000D01*
X145500000Y-157500000D02*
X144500000Y-157500000D01*
X156500000Y-170500000D02*
X157500000Y-170500000D01*
X157500000Y-157500000D02*
X156500000Y-157500000D01*
X157500000Y-157500000D02*
X157500000Y-158500000D01*
X157500000Y-169500000D02*
X157500000Y-170500000D01*
D11*
X107150000Y-187840000D02*
G75*
G02*
X107050000Y-187840000I-50000J0D01*
G01*
X107050000Y-187840000D02*
G75*
G02*
X107150000Y-187840000I50000J0D01*
G01*
X139150000Y-187840000D02*
G75*
G02*
X139050000Y-187840000I-50000J0D01*
G01*
X139050000Y-187840000D02*
G75*
G02*
X139150000Y-187840000I50000J0D01*
G01*
D12*
X96500000Y-158500000D02*
X96500000Y-157500000D01*
X96500000Y-170500000D02*
X96500000Y-169500000D01*
X96500000Y-170500000D02*
X97500000Y-170500000D01*
X97500000Y-157500000D02*
X96500000Y-157500000D01*
X108500000Y-170500000D02*
X109500000Y-170500000D01*
X109500000Y-157500000D02*
X108500000Y-157500000D01*
X109500000Y-157500000D02*
X109500000Y-158500000D01*
X109500000Y-169500000D02*
X109500000Y-170500000D01*
X128500000Y-126500000D02*
X128500000Y-125500000D01*
X128500000Y-138500000D02*
X128500000Y-137500000D01*
X128500000Y-138500000D02*
X129500000Y-138500000D01*
X129500000Y-125500000D02*
X128500000Y-125500000D01*
X140500000Y-138500000D02*
X141500000Y-138500000D01*
X141500000Y-125500000D02*
X140500000Y-125500000D01*
X141500000Y-125500000D02*
X141500000Y-126500000D01*
X141500000Y-137500000D02*
X141500000Y-138500000D01*
D11*
X109344394Y-152720379D02*
G75*
G02*
X109244394Y-152720379I-50000J0D01*
G01*
X109244394Y-152720379D02*
G75*
G02*
X109344394Y-152720379I50000J0D01*
G01*
M02*
