G04 #@! TF.GenerationSoftware,KiCad,Pcbnew,9.0.3*
G04 #@! TF.CreationDate,2025-08-28T23:08:16-05:00*
G04 #@! TF.ProjectId,PiPhoneV0,50695068-6f6e-4655-9630-2e6b69636164,rev?*
G04 #@! TF.SameCoordinates,Original*
G04 #@! TF.FileFunction,Copper,L1,Top*
G04 #@! TF.FilePolarity,Positive*
%FSLAX46Y46*%
G04 Gerber Fmt 4.6, Leading zero omitted, Abs format (unit mm)*
G04 Created by KiCad (PCBNEW 9.0.3) date 2025-08-28 23:08:16*
%MOMM*%
%LPD*%
G01*
G04 APERTURE LIST*
G04 Aperture macros list*
%AMRoundRect*
0 Rectangle with rounded corners*
0 $1 Rounding radius*
0 $2 $3 $4 $5 $6 $7 $8 $9 X,Y pos of 4 corners*
0 Add a 4 corners polygon primitive as box body*
4,1,4,$2,$3,$4,$5,$6,$7,$8,$9,$2,$3,0*
0 Add four circle primitives for the rounded corners*
1,1,$1+$1,$2,$3*
1,1,$1+$1,$4,$5*
1,1,$1+$1,$6,$7*
1,1,$1+$1,$8,$9*
0 Add four rect primitives between the rounded corners*
20,1,$1+$1,$2,$3,$4,$5,0*
20,1,$1+$1,$4,$5,$6,$7,0*
20,1,$1+$1,$6,$7,$8,$9,0*
20,1,$1+$1,$8,$9,$2,$3,0*%
G04 Aperture macros list end*
G04 #@! TA.AperFunction,Conductor*
%ADD10C,0.200000*%
G04 #@! TD*
G04 #@! TA.AperFunction,SMDPad,CuDef*
%ADD11RoundRect,0.100000X0.130000X0.100000X-0.130000X0.100000X-0.130000X-0.100000X0.130000X-0.100000X0*%
G04 #@! TD*
G04 #@! TA.AperFunction,ComponentPad*
%ADD12C,2.000000*%
G04 #@! TD*
G04 #@! TA.AperFunction,SMDPad,CuDef*
%ADD13RoundRect,0.100000X-0.130000X-0.100000X0.130000X-0.100000X0.130000X0.100000X-0.130000X0.100000X0*%
G04 #@! TD*
G04 #@! TA.AperFunction,SMDPad,CuDef*
%ADD14R,1.000000X0.400000*%
G04 #@! TD*
G04 #@! TA.AperFunction,SMDPad,CuDef*
%ADD15R,1.300000X2.000000*%
G04 #@! TD*
G04 #@! TA.AperFunction,SMDPad,CuDef*
%ADD16RoundRect,0.100000X0.100000X-0.130000X0.100000X0.130000X-0.100000X0.130000X-0.100000X-0.130000X0*%
G04 #@! TD*
G04 #@! TA.AperFunction,SMDPad,CuDef*
%ADD17R,0.300000X1.300000*%
G04 #@! TD*
G04 #@! TA.AperFunction,SMDPad,CuDef*
%ADD18R,1.800000X2.200000*%
G04 #@! TD*
G04 #@! TA.AperFunction,SMDPad,CuDef*
%ADD19RoundRect,0.093750X0.106250X-0.093750X0.106250X0.093750X-0.106250X0.093750X-0.106250X-0.093750X0*%
G04 #@! TD*
G04 #@! TA.AperFunction,HeatsinkPad*
%ADD20R,1.600000X1.000000*%
G04 #@! TD*
G04 #@! TA.AperFunction,SMDPad,CuDef*
%ADD21RoundRect,0.225000X0.375000X-0.225000X0.375000X0.225000X-0.375000X0.225000X-0.375000X-0.225000X0*%
G04 #@! TD*
G04 #@! TA.AperFunction,SMDPad,CuDef*
%ADD22R,1.500000X2.400000*%
G04 #@! TD*
G04 #@! TA.AperFunction,SMDPad,CuDef*
%ADD23RoundRect,0.100000X-0.100000X0.130000X-0.100000X-0.130000X0.100000X-0.130000X0.100000X0.130000X0*%
G04 #@! TD*
G04 #@! TA.AperFunction,ComponentPad*
%ADD24R,1.700000X1.700000*%
G04 #@! TD*
G04 #@! TA.AperFunction,ComponentPad*
%ADD25O,1.700000X1.700000*%
G04 #@! TD*
G04 #@! TA.AperFunction,ViaPad*
%ADD26C,0.900000*%
G04 #@! TD*
G04 #@! TA.AperFunction,ViaPad*
%ADD27C,0.700000*%
G04 #@! TD*
G04 #@! TA.AperFunction,Conductor*
%ADD28C,0.500000*%
G04 #@! TD*
G04 #@! TA.AperFunction,Conductor*
%ADD29C,0.300000*%
G04 #@! TD*
G04 #@! TA.AperFunction,Conductor*
%ADD30C,0.400000*%
G04 #@! TD*
G04 APERTURE END LIST*
D10*
X137300000Y-118900000D02*
X136700000Y-118900000D01*
X136700000Y-117800000D01*
X137300000Y-117800000D01*
X137300000Y-118900000D01*
G04 #@! TA.AperFunction,Conductor*
G36*
X137300000Y-118900000D02*
G01*
X136700000Y-118900000D01*
X136700000Y-117800000D01*
X137300000Y-117800000D01*
X137300000Y-118900000D01*
G37*
G04 #@! TD.AperFunction*
X129740645Y-110100000D02*
X129400000Y-110000000D01*
X129200000Y-109100000D01*
X129700000Y-108700000D01*
X129740645Y-110100000D01*
G04 #@! TA.AperFunction,Conductor*
G36*
X129740645Y-110100000D02*
G01*
X129400000Y-110000000D01*
X129200000Y-109100000D01*
X129700000Y-108700000D01*
X129740645Y-110100000D01*
G37*
G04 #@! TD.AperFunction*
D11*
X108754394Y-168720379D03*
X108114394Y-168720379D03*
D12*
X119000000Y-202050000D03*
X123130000Y-199300000D03*
D13*
X124280000Y-103600000D03*
X124920000Y-103600000D03*
D11*
X140754394Y-168720379D03*
X140114394Y-168720379D03*
D12*
X103000000Y-202050000D03*
X107130000Y-199300000D03*
X135000000Y-202050000D03*
X139130000Y-199300000D03*
X135000000Y-154050000D03*
X139130000Y-151300000D03*
D14*
X146680000Y-118700000D03*
X146680000Y-117700000D03*
X146680000Y-116700000D03*
X146680000Y-115700000D03*
X146680000Y-114700000D03*
X146680000Y-113700000D03*
X146680000Y-112700000D03*
X146680000Y-111700000D03*
X146680000Y-110700000D03*
X146680000Y-109700000D03*
X146680000Y-108700000D03*
X146680000Y-107700000D03*
X146680000Y-106700000D03*
X146680000Y-105700000D03*
X146680000Y-104700000D03*
D15*
X149380000Y-121500000D03*
X149380000Y-101900000D03*
D16*
X106255000Y-203420000D03*
X106255000Y-202780000D03*
D13*
X132780000Y-108200000D03*
X133420000Y-108200000D03*
D11*
X124754394Y-152720379D03*
X124114394Y-152720379D03*
D17*
X137750000Y-118350000D03*
X137250000Y-118350000D03*
X136750000Y-118350000D03*
X136250000Y-118350000D03*
X135750000Y-118350000D03*
X135250000Y-118350000D03*
X134750000Y-118350000D03*
X134250000Y-118350000D03*
X133750000Y-118350000D03*
X133250000Y-118350000D03*
X132750000Y-118350000D03*
X132250000Y-118350000D03*
X131750000Y-118350000D03*
X131250000Y-118350000D03*
X130750000Y-118350000D03*
X130250000Y-118350000D03*
X129750000Y-118350000D03*
X129250000Y-118350000D03*
X128750000Y-118350000D03*
X128250000Y-118350000D03*
X127750000Y-118350000D03*
X127250000Y-118350000D03*
X126750000Y-118350000D03*
X126250000Y-118350000D03*
X125750000Y-118350000D03*
X125250000Y-118350000D03*
X124750000Y-118350000D03*
X124250000Y-118350000D03*
X123750000Y-118350000D03*
X123250000Y-118350000D03*
X122750000Y-118350000D03*
X122250000Y-118350000D03*
X121750000Y-118350000D03*
X121250000Y-118350000D03*
X120750000Y-118350000D03*
X120250000Y-118350000D03*
X119750000Y-118350000D03*
X119250000Y-118350000D03*
X118750000Y-118350000D03*
X118250000Y-118350000D03*
D18*
X139650000Y-115100000D03*
X116350000Y-115100000D03*
D12*
X103000000Y-138050000D03*
X107130000Y-135300000D03*
D16*
X139100000Y-203220000D03*
X139100000Y-202580000D03*
D11*
X140754394Y-152720379D03*
X140114394Y-152720379D03*
X156754394Y-168720379D03*
X156114394Y-168720379D03*
X156754394Y-136720379D03*
X156114394Y-136720379D03*
D12*
X151000000Y-138050000D03*
X155130000Y-135300000D03*
X135000000Y-170050000D03*
X139130000Y-167300000D03*
D16*
X123055000Y-187300000D03*
X123055000Y-186660000D03*
D12*
X103000000Y-186050000D03*
X107130000Y-183300000D03*
D13*
X130880000Y-111000000D03*
X131520000Y-111000000D03*
D16*
X123155000Y-203420000D03*
X123155000Y-202780000D03*
D12*
X119000000Y-186050000D03*
X123130000Y-183300000D03*
D11*
X108754394Y-136720379D03*
X108114394Y-136720379D03*
D19*
X128250000Y-109987500D03*
X128900000Y-109987500D03*
X129550000Y-109987500D03*
X129550000Y-108212500D03*
X128900000Y-108212500D03*
X128250000Y-108212500D03*
D20*
X128900000Y-109100000D03*
D11*
X140754394Y-136720379D03*
X140114394Y-136720379D03*
D12*
X119000000Y-154050000D03*
X123130000Y-151300000D03*
D16*
X132900000Y-110500000D03*
X132900000Y-109860000D03*
D12*
X119000000Y-138050000D03*
X123130000Y-135300000D03*
D21*
X135200000Y-109250000D03*
X135200000Y-105950000D03*
D12*
X119000000Y-170050000D03*
X123130000Y-167300000D03*
X135000000Y-186050000D03*
X139130000Y-183300000D03*
X103000000Y-154050000D03*
X107130000Y-151300000D03*
D11*
X124754394Y-136720379D03*
X124114394Y-136720379D03*
X156754394Y-152720379D03*
X156114394Y-152720379D03*
D12*
X151000000Y-154050000D03*
X155130000Y-151300000D03*
D22*
X126650000Y-103600000D03*
X132150000Y-103600000D03*
D11*
X124754394Y-168720379D03*
X124114394Y-168720379D03*
D12*
X151000000Y-170050000D03*
X155130000Y-167300000D03*
D16*
X107100000Y-187300000D03*
X107100000Y-186660000D03*
X139100000Y-187300000D03*
X139100000Y-186660000D03*
D12*
X103000000Y-170050000D03*
X107130000Y-167300000D03*
X135000000Y-138050000D03*
X139130000Y-135300000D03*
D23*
X135400000Y-110700000D03*
X135400000Y-111340000D03*
D11*
X108754394Y-152720379D03*
X108114394Y-152720379D03*
D24*
X156614807Y-95366838D03*
D25*
X156614807Y-97906838D03*
X154074807Y-95366838D03*
X154074807Y-97906838D03*
X151534807Y-95366838D03*
X151534807Y-97906838D03*
X148994807Y-95366838D03*
X148994807Y-97906838D03*
X146454807Y-95366838D03*
X146454807Y-97906838D03*
X143914807Y-95366838D03*
X143914807Y-97906838D03*
X141374807Y-95366838D03*
X141374807Y-97906838D03*
X138834807Y-95366838D03*
X138834807Y-97906838D03*
X136294807Y-95366838D03*
X136294807Y-97906838D03*
X133754807Y-95366838D03*
X133754807Y-97906838D03*
X131214807Y-95366838D03*
X131214807Y-97906838D03*
X128674807Y-95366838D03*
X128674807Y-97906838D03*
X126134807Y-95366838D03*
X126134807Y-97906838D03*
X123594807Y-95366838D03*
X123594807Y-97906838D03*
X121054807Y-95366838D03*
X121054807Y-97906838D03*
X118514807Y-95366838D03*
X118514807Y-97906838D03*
X115974807Y-95366838D03*
X115974807Y-97906838D03*
X113434807Y-95366838D03*
X113434807Y-97906838D03*
X110894807Y-95366838D03*
X110894807Y-97906838D03*
X108354807Y-95366838D03*
X108354807Y-97906838D03*
D26*
X145600000Y-120100000D03*
X118000000Y-115100000D03*
X149400000Y-103800000D03*
X119600000Y-104000000D03*
X149400000Y-119800000D03*
X142800000Y-117700000D03*
X124300000Y-102500000D03*
X141300000Y-115100000D03*
X117800000Y-102300000D03*
X120900000Y-106200000D03*
X138568022Y-101748783D03*
X142900000Y-119500000D03*
X136500000Y-119600000D03*
X141000000Y-104200000D03*
D27*
X108800000Y-135900000D03*
X124800000Y-135900000D03*
X140800000Y-135900000D03*
X156800000Y-135900000D03*
D26*
X121200000Y-101800000D03*
X136695506Y-116511182D03*
X123823903Y-112673666D03*
X128749240Y-113863110D03*
X118800000Y-112500000D03*
X135695669Y-116493002D03*
X122824452Y-112706871D03*
X125099237Y-114539103D03*
X129467310Y-114559085D03*
X130588674Y-113730565D03*
X120823314Y-112593553D03*
X133703724Y-116486232D03*
X130980633Y-116438607D03*
X127100003Y-114600000D03*
X126100000Y-114600000D03*
X128099240Y-114639103D03*
X124100000Y-114500000D03*
X131280265Y-115401350D03*
X123100000Y-114500000D03*
X131381811Y-114380565D03*
X121824928Y-112675927D03*
X119799947Y-112489425D03*
X134700000Y-116400000D03*
X145100000Y-107800000D03*
X145575000Y-109200000D03*
X144425000Y-109200000D03*
X141969103Y-104805541D03*
X144600000Y-118800000D03*
X144376082Y-106900000D03*
X145000000Y-113625000D03*
X145000000Y-114775000D03*
X142625102Y-107675000D03*
X142625102Y-106525000D03*
X136550000Y-103700000D03*
D28*
X142800000Y-118132786D02*
X143833607Y-119166393D01*
X124300000Y-102800000D02*
X124280000Y-102820000D01*
D10*
X149400000Y-103800000D02*
X149400000Y-103440000D01*
D28*
X131789418Y-109860000D02*
X130880000Y-110769418D01*
D10*
X149400000Y-103440000D02*
X149380000Y-103420000D01*
X118702000Y-115100000D02*
X118000000Y-115100000D01*
X121250000Y-118350000D02*
X121250000Y-117648000D01*
X149380000Y-121500000D02*
X149380000Y-119820000D01*
X118250000Y-118350000D02*
X118250000Y-115350000D01*
D28*
X132780000Y-108200000D02*
X132780000Y-109740000D01*
D10*
X129550000Y-109987500D02*
X129550000Y-109750000D01*
D28*
X144767214Y-120100000D02*
X145600000Y-120100000D01*
X142800000Y-117700000D02*
X142800000Y-118132786D01*
D10*
X149380000Y-103420000D02*
X149380000Y-101900000D01*
D28*
X142900000Y-119500000D02*
X143233607Y-119166393D01*
X143833607Y-119166393D02*
X144767214Y-120100000D01*
X124280000Y-102820000D02*
X124280000Y-103600000D01*
X120900000Y-106200000D02*
X123800000Y-109100000D01*
D10*
X116350000Y-115100000D02*
X118000000Y-115100000D01*
D28*
X132900000Y-109860000D02*
X131789418Y-109860000D01*
X141300000Y-115100000D02*
X139650000Y-115100000D01*
D29*
X136250000Y-119350000D02*
X136500000Y-119600000D01*
D28*
X132780000Y-109740000D02*
X132900000Y-109860000D01*
X130562500Y-111000000D02*
X129550000Y-109987500D01*
X130880000Y-110769418D02*
X130880000Y-111000000D01*
X130880000Y-111000000D02*
X130562500Y-111000000D01*
D29*
X136250000Y-118350000D02*
X136250000Y-119350000D01*
D28*
X143233607Y-119166393D02*
X143833607Y-119166393D01*
D10*
X118250000Y-115350000D02*
X118000000Y-115100000D01*
D28*
X119500000Y-104000000D02*
X117800000Y-102300000D01*
D10*
X121250000Y-117648000D02*
X118702000Y-115100000D01*
D28*
X119600000Y-104000000D02*
X119500000Y-104000000D01*
X123800000Y-109100000D02*
X128900000Y-109100000D01*
D10*
X149380000Y-119820000D02*
X149400000Y-119800000D01*
D28*
X124300000Y-102500000D02*
X124300000Y-102800000D01*
D10*
X154074807Y-95366838D02*
X154074807Y-93674807D01*
X151100000Y-101568000D02*
X151100000Y-122400000D01*
X137400000Y-123000000D02*
X133750000Y-119350000D01*
X133750000Y-119350000D02*
X133750000Y-118350000D01*
X152700000Y-92300000D02*
X143600000Y-92300000D01*
X151100000Y-122400000D02*
X150500000Y-123000000D01*
X150032000Y-100500000D02*
X151100000Y-101568000D01*
X150500000Y-123000000D02*
X137400000Y-123000000D01*
X142425807Y-93474193D02*
X142425807Y-99225807D01*
X143700000Y-100500000D02*
X150032000Y-100500000D01*
X154074807Y-93674807D02*
X152700000Y-92300000D01*
X143600000Y-92300000D02*
X142425807Y-93474193D01*
X142425807Y-99225807D02*
X143700000Y-100500000D01*
X137300000Y-123800000D02*
X151000000Y-123800000D01*
X151800000Y-123000000D02*
X151800000Y-101842322D01*
X149957678Y-100000000D02*
X146600000Y-100000000D01*
X151000000Y-123800000D02*
X151800000Y-123000000D01*
X146800000Y-92900000D02*
X149067969Y-92900000D01*
X133250000Y-119750000D02*
X137300000Y-123800000D01*
X145100000Y-94600000D02*
X146800000Y-92900000D01*
X146600000Y-100000000D02*
X145100000Y-98500000D01*
X133250000Y-118350000D02*
X133250000Y-119750000D01*
X145100000Y-98500000D02*
X145100000Y-94600000D01*
X151800000Y-101842322D02*
X149957678Y-100000000D01*
X149067969Y-92900000D02*
X151534807Y-95366838D01*
X132750000Y-118350000D02*
X132750000Y-118650000D01*
X150045807Y-98342177D02*
X150045807Y-96417838D01*
X152400000Y-100696370D02*
X150045807Y-98342177D01*
X132750000Y-118650000D02*
X132800000Y-118700000D01*
X132750000Y-118350000D02*
X132750000Y-119950000D01*
X137200000Y-124400000D02*
X151400000Y-124400000D01*
X150045807Y-96417838D02*
X148994807Y-95366838D01*
X132750000Y-119950000D02*
X137200000Y-124400000D01*
X152400000Y-123400000D02*
X152400000Y-100696370D01*
X151400000Y-124400000D02*
X152400000Y-123400000D01*
X141287969Y-102900000D02*
X136294807Y-97906838D01*
X146199000Y-120901000D02*
X149200000Y-117900000D01*
X147200000Y-102900000D02*
X141287969Y-102900000D01*
X135248000Y-120273678D02*
X135875322Y-120901000D01*
X149200000Y-117900000D02*
X149200000Y-104900000D01*
X149200000Y-104900000D02*
X147200000Y-102900000D01*
X135250000Y-118350000D02*
X135248000Y-118352000D01*
X135875322Y-120901000D02*
X146199000Y-120901000D01*
X135248000Y-118352000D02*
X135248000Y-120273678D01*
X138400000Y-104200000D02*
X132106838Y-97906838D01*
X132106838Y-97906838D02*
X131214807Y-97906838D01*
X141000000Y-104200000D02*
X138400000Y-104200000D01*
D29*
X138900000Y-203420000D02*
X123155000Y-203420000D01*
X96500000Y-197319182D02*
X96500000Y-94300000D01*
X117927969Y-89700000D02*
X123594807Y-95366838D01*
X96500000Y-94300000D02*
X101100000Y-89700000D01*
X101100000Y-89700000D02*
X117927969Y-89700000D01*
X102600818Y-203420000D02*
X96500000Y-197319182D01*
X106255000Y-203420000D02*
X102600818Y-203420000D01*
X139100000Y-203220000D02*
X138900000Y-203420000D01*
X106255000Y-203420000D02*
X123155000Y-203420000D01*
X99800000Y-188400000D02*
X97500000Y-186100000D01*
X97500000Y-94800000D02*
X101900000Y-90400000D01*
X107100000Y-187300000D02*
X123055000Y-187300000D01*
X107100000Y-187300000D02*
X106000000Y-188400000D01*
X101900000Y-90400000D02*
X116087969Y-90400000D01*
X106000000Y-188400000D02*
X99800000Y-188400000D01*
X97500000Y-186100000D02*
X97500000Y-94800000D01*
X123055000Y-187300000D02*
X139100000Y-187300000D01*
X116087969Y-90400000D02*
X121054807Y-95366838D01*
X108754394Y-168720379D02*
X108754394Y-152720379D01*
X108754394Y-136720379D02*
X108754394Y-152720379D01*
X108754394Y-136720379D02*
X108754394Y-135945606D01*
X108754394Y-135945606D02*
X108800000Y-135900000D01*
D28*
X118514807Y-97906838D02*
X122306969Y-101699000D01*
X122306969Y-101699000D02*
X127401000Y-101699000D01*
X127401000Y-101699000D02*
X128900000Y-103198000D01*
X128900000Y-103198000D02*
X128900000Y-108212500D01*
D29*
X124754394Y-136720379D02*
X124754394Y-135945606D01*
X124754394Y-168720379D02*
X124754394Y-152720379D01*
X124754394Y-135945606D02*
X124800000Y-135900000D01*
X124754394Y-136720379D02*
X124754394Y-152720379D01*
X140754394Y-168720379D02*
X140754394Y-152720379D01*
X140754394Y-136720379D02*
X140754394Y-152720379D01*
X140754394Y-135945606D02*
X140800000Y-135900000D01*
X140754394Y-136720379D02*
X140754394Y-135945606D01*
X103000000Y-186050000D02*
X99724000Y-182774000D01*
X113434807Y-97906838D02*
X111900000Y-99441645D01*
X99724000Y-182774000D02*
X99724000Y-141326000D01*
X111900000Y-130950000D02*
X119000000Y-138050000D01*
X99724000Y-141326000D02*
X103000000Y-138050000D01*
X111900000Y-99441645D02*
X111900000Y-130950000D01*
X156754394Y-168720379D02*
X156754394Y-152720379D01*
X156754394Y-136720379D02*
X156754394Y-135945606D01*
X156754394Y-135945606D02*
X156800000Y-135900000D01*
X156754394Y-136720379D02*
X156754394Y-152720379D01*
X119000000Y-186050000D02*
X115700000Y-182750000D01*
X110894807Y-97906838D02*
X110800000Y-98001645D01*
X115700000Y-157350000D02*
X119000000Y-154050000D01*
X115700000Y-182750000D02*
X115700000Y-157350000D01*
X110800000Y-145850000D02*
X119000000Y-154050000D01*
X110800000Y-98001645D02*
X110800000Y-145850000D01*
X109800000Y-168333223D02*
X108083223Y-170050000D01*
X131724000Y-182774000D02*
X131724000Y-173326000D01*
X131724000Y-173326000D02*
X135000000Y-170050000D01*
X108354807Y-97906838D02*
X109800000Y-99352031D01*
X108083223Y-170050000D02*
X103000000Y-170050000D01*
X135000000Y-186050000D02*
X131724000Y-182774000D01*
X109800000Y-99352031D02*
X109800000Y-168333223D01*
D28*
X128250000Y-108212500D02*
X128250000Y-105200000D01*
X121200000Y-103200000D02*
X126212500Y-108212500D01*
X126212500Y-108212500D02*
X128250000Y-108212500D01*
X154074807Y-97906838D02*
X156614807Y-97906838D01*
X126650000Y-103600000D02*
X124920000Y-103600000D01*
X121200000Y-101800000D02*
X121200000Y-103200000D01*
X128250000Y-105200000D02*
X126650000Y-103600000D01*
X156614807Y-95366838D02*
X152596969Y-91349000D01*
X140312645Y-91349000D02*
X136294807Y-95366838D01*
X152596969Y-91349000D02*
X140312645Y-91349000D01*
D29*
X107130000Y-136450000D02*
X107400379Y-136720379D01*
X107400379Y-136720379D02*
X108114394Y-136720379D01*
X107130000Y-135300000D02*
X107130000Y-136450000D01*
X107130000Y-151300000D02*
X107130000Y-152450000D01*
X107130000Y-152450000D02*
X107400379Y-152720379D01*
X107400379Y-152720379D02*
X108114394Y-152720379D01*
X107130000Y-168450000D02*
X107400379Y-168720379D01*
X107400379Y-168720379D02*
X108114394Y-168720379D01*
X107130000Y-167300000D02*
X107130000Y-168450000D01*
X123130000Y-136450000D02*
X123400379Y-136720379D01*
X123130000Y-135300000D02*
X123130000Y-136450000D01*
X123400379Y-136720379D02*
X124114394Y-136720379D01*
X123400379Y-152720379D02*
X124114394Y-152720379D01*
X123130000Y-152450000D02*
X123400379Y-152720379D01*
X123130000Y-151300000D02*
X123130000Y-152450000D01*
X123130000Y-167300000D02*
X123130000Y-168450000D01*
X123400379Y-168720379D02*
X124114394Y-168720379D01*
X123130000Y-168450000D02*
X123400379Y-168720379D01*
X139400379Y-136720379D02*
X140114394Y-136720379D01*
X139130000Y-135300000D02*
X139130000Y-136450000D01*
X139130000Y-136450000D02*
X139400379Y-136720379D01*
X139400379Y-152720379D02*
X140114394Y-152720379D01*
X139130000Y-152450000D02*
X139400379Y-152720379D01*
X139130000Y-151300000D02*
X139130000Y-152450000D01*
X139130000Y-168450000D02*
X139400379Y-168720379D01*
X139400379Y-168720379D02*
X140114394Y-168720379D01*
X139130000Y-167300000D02*
X139130000Y-168450000D01*
X155130000Y-136450000D02*
X155400379Y-136720379D01*
X155130000Y-135300000D02*
X155130000Y-136450000D01*
X155400379Y-136720379D02*
X156114394Y-136720379D01*
X155130000Y-152450000D02*
X155400379Y-152720379D01*
X155400379Y-152720379D02*
X156114394Y-152720379D01*
X155130000Y-151300000D02*
X155130000Y-152450000D01*
X155130000Y-167300000D02*
X155130000Y-168450000D01*
X155400379Y-168720379D02*
X156114394Y-168720379D01*
X155130000Y-168450000D02*
X155400379Y-168720379D01*
X107130000Y-186630000D02*
X107100000Y-186660000D01*
X107130000Y-183300000D02*
X107130000Y-186630000D01*
X123130000Y-183300000D02*
X123130000Y-186585000D01*
X123130000Y-186585000D02*
X123055000Y-186660000D01*
X139130000Y-186630000D02*
X139100000Y-186660000D01*
X139130000Y-183300000D02*
X139130000Y-186630000D01*
X106355000Y-202680000D02*
X106255000Y-202780000D01*
X107130000Y-199330000D02*
X107200000Y-199400000D01*
X106355000Y-200105000D02*
X106355000Y-202680000D01*
X107130000Y-199300000D02*
X107130000Y-199330000D01*
X107060000Y-199400000D02*
X106355000Y-200105000D01*
X107200000Y-199400000D02*
X107060000Y-199400000D01*
X123155000Y-202780000D02*
X123130000Y-202755000D01*
X123130000Y-202755000D02*
X123130000Y-199300000D01*
X139130000Y-199300000D02*
X139130000Y-199370000D01*
X139000000Y-199500000D02*
X139100000Y-199600000D01*
X139130000Y-199370000D02*
X139000000Y-199500000D01*
X139100000Y-199600000D02*
X139100000Y-202580000D01*
D10*
X132250000Y-118350000D02*
X132250000Y-117648000D01*
X132753998Y-117144002D02*
X136062686Y-117144002D01*
X132250000Y-117648000D02*
X132753998Y-117144002D01*
X136062686Y-117144002D02*
X136695506Y-116511182D01*
X122100000Y-115572322D02*
X122100000Y-114397569D01*
X124250000Y-117722322D02*
X122100000Y-115572322D01*
X122100000Y-114397569D02*
X123823903Y-112673666D01*
X124250000Y-118350000D02*
X124250000Y-117722322D01*
X127750000Y-116275678D02*
X127750000Y-118350000D01*
X128800000Y-115225678D02*
X127750000Y-116275678D01*
X128800000Y-113913870D02*
X128800000Y-115225678D01*
X128749240Y-113863110D02*
X128800000Y-113913870D01*
X118800000Y-112500000D02*
X119600000Y-113300000D01*
X119600000Y-113300000D02*
X119600000Y-115500000D01*
X119600000Y-115500000D02*
X121750000Y-117650000D01*
X121750000Y-117650000D02*
X121750000Y-118350000D01*
X135695669Y-116493002D02*
X135695669Y-116475015D01*
X130750000Y-117589894D02*
X130750000Y-118350000D01*
X135695669Y-116475015D02*
X134390601Y-115169947D01*
X133169947Y-115169947D02*
X130750000Y-117589894D01*
X134390601Y-115169947D02*
X133169947Y-115169947D01*
X121600000Y-115572322D02*
X123750000Y-117722322D01*
X121600000Y-114248904D02*
X121600000Y-115572322D01*
X122824452Y-112706871D02*
X122824452Y-113024452D01*
X122824452Y-113024452D02*
X121600000Y-114248904D01*
X123750000Y-117722322D02*
X123750000Y-118350000D01*
X125551000Y-115751006D02*
X125750000Y-115950006D01*
X125099237Y-114539103D02*
X125099237Y-115073559D01*
X125551000Y-115525322D02*
X125551000Y-115751006D01*
X125099237Y-115073559D02*
X125551000Y-115525322D01*
X125750000Y-115950006D02*
X125750000Y-118350000D01*
X129467310Y-114559085D02*
X129467310Y-115043310D01*
X129467310Y-115043310D02*
X128250000Y-116260620D01*
X128250000Y-116260620D02*
X128250000Y-118350000D01*
X130588674Y-113730565D02*
X130538752Y-113780487D01*
X128750000Y-116250000D02*
X128750000Y-118350000D01*
X130538752Y-113780487D02*
X130538752Y-114461248D01*
X130538752Y-114461248D02*
X128750000Y-116250000D01*
X122750000Y-117722322D02*
X122750000Y-118350000D01*
X120600000Y-115572322D02*
X122750000Y-117722322D01*
X120823314Y-112593553D02*
X120600000Y-112816867D01*
X120600000Y-112816867D02*
X120600000Y-115572322D01*
X132800000Y-116600000D02*
X131750000Y-117650000D01*
X131750000Y-117650000D02*
X131750000Y-118350000D01*
X133589956Y-116600000D02*
X132800000Y-116600000D01*
X133703724Y-116486232D02*
X133589956Y-116600000D01*
X130980633Y-116438607D02*
X130980633Y-116664287D01*
X130980633Y-116664287D02*
X130250000Y-117394920D01*
X130250000Y-117394920D02*
X130250000Y-118350000D01*
D28*
X131520000Y-111000000D02*
X131520000Y-111230582D01*
X131089962Y-111660620D02*
X129208594Y-111660620D01*
X131520000Y-111230582D02*
X131089962Y-111660620D01*
X129208594Y-111660620D02*
X128900000Y-111352026D01*
X128900000Y-111352026D02*
X128900000Y-109987500D01*
D10*
X126750000Y-116250012D02*
X126750000Y-118350000D01*
X127100003Y-115900009D02*
X126750000Y-116250012D01*
X127100003Y-114600000D02*
X127100003Y-115900009D01*
X126250000Y-116050000D02*
X126250000Y-118350000D01*
X126083561Y-114616439D02*
X126083561Y-115883561D01*
X126100000Y-114600000D02*
X126083561Y-114616439D01*
X126083561Y-115883561D02*
X126250000Y-116050000D01*
X128099240Y-115500760D02*
X127250000Y-116350000D01*
X128099240Y-114639103D02*
X128099240Y-115500760D01*
X127250000Y-116350000D02*
X127250000Y-118350000D01*
X124100000Y-114500000D02*
X125250000Y-115650000D01*
X125250000Y-115650000D02*
X125250000Y-118350000D01*
X129750000Y-116750000D02*
X129750000Y-118350000D01*
X131280265Y-115401350D02*
X131098650Y-115401350D01*
X131098650Y-115401350D02*
X129750000Y-116750000D01*
X124700000Y-116100000D02*
X124700000Y-116843288D01*
X124700000Y-116843288D02*
X124750000Y-116893288D01*
X124750000Y-116893288D02*
X124750000Y-118350000D01*
X123100000Y-114500000D02*
X124700000Y-116100000D01*
X129250000Y-116512376D02*
X129250000Y-118350000D01*
X131381811Y-114380565D02*
X129250000Y-116512376D01*
X123250000Y-117722322D02*
X123250000Y-118350000D01*
X121100000Y-113400855D02*
X121100000Y-115572322D01*
X121100000Y-115572322D02*
X123250000Y-117722322D01*
X121824928Y-112675927D02*
X121100000Y-113400855D01*
X120100000Y-115572322D02*
X122250000Y-117722322D01*
X122250000Y-117722322D02*
X122250000Y-118350000D01*
X120100000Y-112789478D02*
X120100000Y-115572322D01*
X119799947Y-112489425D02*
X120100000Y-112789478D01*
X134060320Y-115760320D02*
X133137680Y-115760320D01*
X134700000Y-116400000D02*
X134060320Y-115760320D01*
X131250000Y-117648000D02*
X131250000Y-118350000D01*
X133137680Y-115760320D02*
X131250000Y-117648000D01*
X146000000Y-108700000D02*
X145100000Y-107800000D01*
X146680000Y-108700000D02*
X146000000Y-108700000D01*
X145225001Y-109549999D02*
X145575000Y-109200000D01*
X145225001Y-109608604D02*
X145225001Y-109549999D01*
X146316397Y-110700000D02*
X145225001Y-109608604D01*
X146680000Y-110700000D02*
X146316397Y-110700000D01*
X146680000Y-111700000D02*
X144774999Y-109794999D01*
X144774999Y-109549999D02*
X144425000Y-109200000D01*
X144774999Y-109794999D02*
X144774999Y-109549999D01*
X141969103Y-104805541D02*
X142863562Y-105700000D01*
X142863562Y-105700000D02*
X146680000Y-105700000D01*
X144600000Y-118800000D02*
X144700000Y-118700000D01*
X144700000Y-118700000D02*
X146680000Y-118700000D01*
X145200003Y-106900000D02*
X146000003Y-107700000D01*
X144376082Y-106900000D02*
X145200003Y-106900000D01*
X146000003Y-107700000D02*
X146680000Y-107700000D01*
X146405001Y-113974999D02*
X145349999Y-113974999D01*
X146680000Y-113700000D02*
X146405001Y-113974999D01*
X145349999Y-113974999D02*
X145000000Y-113625000D01*
X146405001Y-114425001D02*
X145349999Y-114425001D01*
X145349999Y-114425001D02*
X145000000Y-114775000D01*
X146680000Y-114700000D02*
X146405001Y-114425001D01*
X142554792Y-114706255D02*
X142639644Y-114791107D01*
X143473630Y-114805652D02*
X144543958Y-115875980D01*
X143388776Y-114720797D02*
X143473630Y-114805652D01*
X142625102Y-114296535D02*
X142554792Y-114366844D01*
X144543958Y-115875980D02*
X144855980Y-115875980D01*
X142979056Y-114791107D02*
X143049365Y-114720797D01*
X142625102Y-113804198D02*
X142625102Y-113957124D01*
X144855980Y-115875980D02*
X146680000Y-117700000D01*
X142625102Y-113154198D02*
X142625102Y-113804198D01*
X142625102Y-107675000D02*
X142625102Y-113154198D01*
X142639644Y-114791107D02*
G75*
G03*
X142979056Y-114791107I169706J169704D01*
G01*
X142554792Y-114366844D02*
G75*
G03*
X142554841Y-114706205I169708J-169656D01*
G01*
X142625102Y-113957124D02*
G75*
G02*
X142625073Y-114296505I-169702J-169676D01*
G01*
X143049365Y-114720797D02*
G75*
G02*
X143388776Y-114720796I169706J-169707D01*
G01*
X143075102Y-111584055D02*
X143075102Y-113770756D01*
X143276102Y-107405346D02*
X143276102Y-107944654D01*
X142625102Y-106525000D02*
X143075102Y-106975000D01*
X143075102Y-108145654D02*
X143075102Y-108437534D01*
X143276102Y-107944654D02*
X143075102Y-108145654D01*
X143075102Y-109637534D02*
X143075102Y-111584055D01*
X145042397Y-115426000D02*
X146316397Y-116700000D01*
X143075102Y-106975000D02*
X143075102Y-107204346D01*
X143075102Y-109261448D02*
X143075102Y-109637534D01*
X144730346Y-115426000D02*
X145042397Y-115426000D01*
X143299016Y-108661448D02*
X143299016Y-109037534D01*
X143075102Y-113770756D02*
X144730346Y-115426000D01*
X143075102Y-107204346D02*
X143276102Y-107405346D01*
X146316397Y-116700000D02*
X146680000Y-116700000D01*
X143187059Y-109149491D02*
G75*
G03*
X143075191Y-109261448I41J-111909D01*
G01*
X143187059Y-108549491D02*
G75*
G02*
X143299009Y-108661448I41J-111909D01*
G01*
X143299016Y-109037534D02*
G75*
G02*
X143187059Y-109149416I-111916J34D01*
G01*
X143075102Y-108437534D02*
G75*
G03*
X143187059Y-108549498I111998J34D01*
G01*
D28*
X134150000Y-108200000D02*
X135200000Y-109250000D01*
X133420000Y-108200000D02*
X134150000Y-108200000D01*
X132850000Y-103600000D02*
X135200000Y-105950000D01*
X132150000Y-103600000D02*
X132150000Y-105612500D01*
X132150000Y-103600000D02*
X132850000Y-103600000D01*
X132150000Y-105612500D02*
X129550000Y-108212500D01*
D10*
X136000000Y-120600000D02*
X139500000Y-120600000D01*
X142000000Y-109150000D02*
X136550000Y-103700000D01*
X142000000Y-118100000D02*
X142000000Y-109150000D01*
X139500000Y-120600000D02*
X142000000Y-118100000D01*
X135549000Y-119430346D02*
X135549000Y-120149000D01*
X135750000Y-119229346D02*
X135549000Y-119430346D01*
X135750000Y-118350000D02*
X135750000Y-119229346D01*
X135549000Y-120149000D02*
X136000000Y-120600000D01*
D28*
X128212500Y-109987500D02*
X128200000Y-110000000D01*
X128200000Y-111501968D02*
X128959652Y-112261620D01*
X128959652Y-112261620D02*
X131368379Y-112261620D01*
X128250000Y-109987500D02*
X128212500Y-109987500D01*
D30*
X132900000Y-110500000D02*
X132900000Y-111200000D01*
D28*
X128200000Y-110000000D02*
X128200000Y-111501968D01*
D30*
X137446506Y-115746506D02*
X137446506Y-116822257D01*
D28*
X132900000Y-110729999D02*
X132900000Y-110500000D01*
X131368379Y-112261620D02*
X132900000Y-110729999D01*
D30*
X137446506Y-116822257D02*
X137000000Y-117268763D01*
X137000000Y-117268763D02*
X137000000Y-118350000D01*
X132900000Y-111200000D02*
X137446506Y-115746506D01*
X138000000Y-113940000D02*
X135400000Y-111340000D01*
X138000000Y-118400000D02*
X138000000Y-113940000D01*
X137800000Y-118400000D02*
X138000000Y-118400000D01*
X137750000Y-118350000D02*
X137800000Y-118400000D01*
M02*
