G04 #@! TF.GenerationSoftware,KiCad,Pcbnew,9.0.3*
G04 #@! TF.CreationDate,2025-08-28T23:08:17-05:00*
G04 #@! TF.ProjectId,PiPhoneV0,50695068-6f6e-4655-9630-2e6b69636164,rev?*
G04 #@! TF.SameCoordinates,Original*
G04 #@! TF.FileFunction,Soldermask,Top*
G04 #@! TF.FilePolarity,Negative*
%FSLAX46Y46*%
G04 Gerber Fmt 4.6, Leading zero omitted, Abs format (unit mm)*
G04 Created by KiCad (PCBNEW 9.0.3) date 2025-08-28 23:08:17*
%MOMM*%
%LPD*%
G01*
G04 APERTURE LIST*
G04 Aperture macros list*
%AMRoundRect*
0 Rectangle with rounded corners*
0 $1 Rounding radius*
0 $2 $3 $4 $5 $6 $7 $8 $9 X,Y pos of 4 corners*
0 Add a 4 corners polygon primitive as box body*
4,1,4,$2,$3,$4,$5,$6,$7,$8,$9,$2,$3,0*
0 Add four circle primitives for the rounded corners*
1,1,$1+$1,$2,$3*
1,1,$1+$1,$4,$5*
1,1,$1+$1,$6,$7*
1,1,$1+$1,$8,$9*
0 Add four rect primitives between the rounded corners*
20,1,$1+$1,$2,$3,$4,$5,0*
20,1,$1+$1,$4,$5,$6,$7,0*
20,1,$1+$1,$6,$7,$8,$9,0*
20,1,$1+$1,$8,$9,$2,$3,0*%
G04 Aperture macros list end*
%ADD10RoundRect,0.100000X0.130000X0.100000X-0.130000X0.100000X-0.130000X-0.100000X0.130000X-0.100000X0*%
%ADD11C,6.250000*%
%ADD12C,2.300000*%
%ADD13RoundRect,0.100000X-0.130000X-0.100000X0.130000X-0.100000X0.130000X0.100000X-0.130000X0.100000X0*%
%ADD14R,1.000000X0.400000*%
%ADD15R,1.300000X2.000000*%
%ADD16RoundRect,0.100000X0.100000X-0.130000X0.100000X0.130000X-0.100000X0.130000X-0.100000X-0.130000X0*%
%ADD17R,0.300000X1.300000*%
%ADD18R,1.800000X2.200000*%
%ADD19C,2.700000*%
%ADD20RoundRect,0.093750X0.106250X-0.093750X0.106250X0.093750X-0.106250X0.093750X-0.106250X-0.093750X0*%
%ADD21R,1.600000X1.000000*%
%ADD22RoundRect,0.225000X0.375000X-0.225000X0.375000X0.225000X-0.375000X0.225000X-0.375000X-0.225000X0*%
%ADD23R,1.500000X2.400000*%
%ADD24RoundRect,0.100000X-0.100000X0.130000X-0.100000X-0.130000X0.100000X-0.130000X0.100000X0.130000X0*%
%ADD25R,1.700000X1.700000*%
%ADD26O,1.700000X1.700000*%
G04 APERTURE END LIST*
D10*
X108754394Y-168720379D03*
X108114394Y-168720379D03*
D11*
X119000000Y-196000000D03*
D12*
X119000000Y-199700000D03*
D13*
X124280000Y-103600000D03*
X124920000Y-103600000D03*
D10*
X140754394Y-168720379D03*
X140114394Y-168720379D03*
D11*
X103000000Y-196000000D03*
D12*
X103000000Y-199700000D03*
D11*
X135000000Y-196000000D03*
D12*
X135000000Y-199700000D03*
D11*
X135000000Y-148000000D03*
D12*
X135000000Y-151700000D03*
D14*
X146680000Y-118700000D03*
X146680000Y-117700000D03*
X146680000Y-116700000D03*
X146680000Y-115700000D03*
X146680000Y-114700000D03*
X146680000Y-113700000D03*
X146680000Y-112700000D03*
X146680000Y-111700000D03*
X146680000Y-110700000D03*
X146680000Y-109700000D03*
X146680000Y-108700000D03*
X146680000Y-107700000D03*
X146680000Y-106700000D03*
X146680000Y-105700000D03*
X146680000Y-104700000D03*
D15*
X149380000Y-121500000D03*
X149380000Y-101900000D03*
D16*
X106255000Y-203420000D03*
X106255000Y-202780000D03*
D13*
X132780000Y-108200000D03*
X133420000Y-108200000D03*
D10*
X124754394Y-152720379D03*
X124114394Y-152720379D03*
D17*
X137750000Y-118350000D03*
X137250000Y-118350000D03*
X136750000Y-118350000D03*
X136250000Y-118350000D03*
X135750000Y-118350000D03*
X135250000Y-118350000D03*
X134750000Y-118350000D03*
X134250000Y-118350000D03*
X133750000Y-118350000D03*
X133250000Y-118350000D03*
X132750000Y-118350000D03*
X132250000Y-118350000D03*
X131750000Y-118350000D03*
X131250000Y-118350000D03*
X130750000Y-118350000D03*
X130250000Y-118350000D03*
X129750000Y-118350000D03*
X129250000Y-118350000D03*
X128750000Y-118350000D03*
X128250000Y-118350000D03*
X127750000Y-118350000D03*
X127250000Y-118350000D03*
X126750000Y-118350000D03*
X126250000Y-118350000D03*
X125750000Y-118350000D03*
X125250000Y-118350000D03*
X124750000Y-118350000D03*
X124250000Y-118350000D03*
X123750000Y-118350000D03*
X123250000Y-118350000D03*
X122750000Y-118350000D03*
X122250000Y-118350000D03*
X121750000Y-118350000D03*
X121250000Y-118350000D03*
X120750000Y-118350000D03*
X120250000Y-118350000D03*
X119750000Y-118350000D03*
X119250000Y-118350000D03*
X118750000Y-118350000D03*
X118250000Y-118350000D03*
D18*
X139650000Y-115100000D03*
X116350000Y-115100000D03*
D11*
X103000000Y-132000000D03*
D12*
X103000000Y-135700000D03*
D16*
X139100000Y-203220000D03*
X139100000Y-202580000D03*
D10*
X140754394Y-152720379D03*
X140114394Y-152720379D03*
X156754394Y-168720379D03*
X156114394Y-168720379D03*
X156754394Y-136720379D03*
X156114394Y-136720379D03*
D11*
X151000000Y-132000000D03*
D12*
X151000000Y-135700000D03*
D11*
X135000000Y-164000000D03*
D12*
X135000000Y-167700000D03*
D19*
X103500000Y-96500000D03*
D16*
X123055000Y-187300000D03*
X123055000Y-186660000D03*
D11*
X103000000Y-180000000D03*
D12*
X103000000Y-183700000D03*
D13*
X130880000Y-111000000D03*
X131520000Y-111000000D03*
D16*
X123155000Y-203420000D03*
X123155000Y-202780000D03*
D11*
X119000000Y-180000000D03*
D12*
X119000000Y-183700000D03*
D10*
X108754394Y-136720379D03*
X108114394Y-136720379D03*
D20*
X128250000Y-109987500D03*
X128900000Y-109987500D03*
X129550000Y-109987500D03*
X129550000Y-108212500D03*
X128900000Y-108212500D03*
X128250000Y-108212500D03*
D21*
X128900000Y-109100000D03*
D10*
X140754394Y-136720379D03*
X140114394Y-136720379D03*
D11*
X119000000Y-148000000D03*
D12*
X119000000Y-151700000D03*
D16*
X132900000Y-110500000D03*
X132900000Y-109860000D03*
D11*
X119000000Y-132000000D03*
D12*
X119000000Y-135700000D03*
D22*
X135200000Y-109250000D03*
X135200000Y-105950000D03*
D11*
X119000000Y-164000000D03*
D12*
X119000000Y-167700000D03*
D11*
X135000000Y-180000000D03*
D12*
X135000000Y-183700000D03*
D11*
X103000000Y-148000000D03*
D12*
X103000000Y-151700000D03*
D10*
X124754394Y-136720379D03*
X124114394Y-136720379D03*
X156754394Y-152720379D03*
X156114394Y-152720379D03*
D11*
X151000000Y-148000000D03*
D12*
X151000000Y-151700000D03*
D23*
X126650000Y-103600000D03*
X132150000Y-103600000D03*
D19*
X161500000Y-96500000D03*
D10*
X124754394Y-168720379D03*
X124114394Y-168720379D03*
D11*
X151000000Y-164000000D03*
D12*
X151000000Y-167700000D03*
D16*
X107100000Y-187300000D03*
X107100000Y-186660000D03*
X139100000Y-187300000D03*
X139100000Y-186660000D03*
D11*
X103000000Y-164000000D03*
D12*
X103000000Y-167700000D03*
D11*
X135000000Y-132000000D03*
D12*
X135000000Y-135700000D03*
D24*
X135400000Y-110700000D03*
X135400000Y-111340000D03*
D10*
X108754394Y-152720379D03*
X108114394Y-152720379D03*
D25*
X156614807Y-95366838D03*
D26*
X156614807Y-97906838D03*
X154074807Y-95366838D03*
X154074807Y-97906838D03*
X151534807Y-95366838D03*
X151534807Y-97906838D03*
X148994807Y-95366838D03*
X148994807Y-97906838D03*
X146454807Y-95366838D03*
X146454807Y-97906838D03*
X143914807Y-95366838D03*
X143914807Y-97906838D03*
X141374807Y-95366838D03*
X141374807Y-97906838D03*
X138834807Y-95366838D03*
X138834807Y-97906838D03*
X136294807Y-95366838D03*
X136294807Y-97906838D03*
X133754807Y-95366838D03*
X133754807Y-97906838D03*
X131214807Y-95366838D03*
X131214807Y-97906838D03*
X128674807Y-95366838D03*
X128674807Y-97906838D03*
X126134807Y-95366838D03*
X126134807Y-97906838D03*
X123594807Y-95366838D03*
X123594807Y-97906838D03*
X121054807Y-95366838D03*
X121054807Y-97906838D03*
X118514807Y-95366838D03*
X118514807Y-97906838D03*
X115974807Y-95366838D03*
X115974807Y-97906838D03*
X113434807Y-95366838D03*
X113434807Y-97906838D03*
X110894807Y-95366838D03*
X110894807Y-97906838D03*
X108354807Y-95366838D03*
X108354807Y-97906838D03*
M02*
