G04 #@! TF.GenerationSoftware,KiCad,Pcbnew,9.0.3*
G04 #@! TF.CreationDate,2025-08-28T23:08:16-05:00*
G04 #@! TF.ProjectId,PiPhoneV0,50695068-6f6e-4655-9630-2e6b69636164,rev?*
G04 #@! TF.SameCoordinates,Original*
G04 #@! TF.FileFunction,Paste,Top*
G04 #@! TF.FilePolarity,Positive*
%FSLAX46Y46*%
G04 Gerber Fmt 4.6, Leading zero omitted, Abs format (unit mm)*
G04 Created by KiCad (PCBNEW 9.0.3) date 2025-08-28 23:08:16*
%MOMM*%
%LPD*%
G01*
G04 APERTURE LIST*
G04 Aperture macros list*
%AMRoundRect*
0 Rectangle with rounded corners*
0 $1 Rounding radius*
0 $2 $3 $4 $5 $6 $7 $8 $9 X,Y pos of 4 corners*
0 Add a 4 corners polygon primitive as box body*
4,1,4,$2,$3,$4,$5,$6,$7,$8,$9,$2,$3,0*
0 Add four circle primitives for the rounded corners*
1,1,$1+$1,$2,$3*
1,1,$1+$1,$4,$5*
1,1,$1+$1,$6,$7*
1,1,$1+$1,$8,$9*
0 Add four rect primitives between the rounded corners*
20,1,$1+$1,$2,$3,$4,$5,0*
20,1,$1+$1,$4,$5,$6,$7,0*
20,1,$1+$1,$6,$7,$8,$9,0*
20,1,$1+$1,$8,$9,$2,$3,0*%
G04 Aperture macros list end*
%ADD10RoundRect,0.079500X0.079500X0.100500X-0.079500X0.100500X-0.079500X-0.100500X0.079500X-0.100500X0*%
%ADD11RoundRect,0.079500X-0.079500X-0.100500X0.079500X-0.100500X0.079500X0.100500X-0.079500X0.100500X0*%
%ADD12R,1.000000X0.400000*%
%ADD13R,1.300000X2.000000*%
%ADD14RoundRect,0.079500X0.100500X-0.079500X0.100500X0.079500X-0.100500X0.079500X-0.100500X-0.079500X0*%
%ADD15R,0.300000X1.300000*%
%ADD16R,1.800000X2.200000*%
%ADD17RoundRect,0.160000X0.160000X-0.245000X0.160000X0.245000X-0.160000X0.245000X-0.160000X-0.245000X0*%
%ADD18RoundRect,0.093750X0.106250X-0.093750X0.106250X0.093750X-0.106250X0.093750X-0.106250X-0.093750X0*%
%ADD19RoundRect,0.225000X0.375000X-0.225000X0.375000X0.225000X-0.375000X0.225000X-0.375000X-0.225000X0*%
%ADD20R,1.500000X2.400000*%
%ADD21RoundRect,0.079500X-0.100500X0.079500X-0.100500X-0.079500X0.100500X-0.079500X0.100500X0.079500X0*%
G04 APERTURE END LIST*
D10*
X108779394Y-168720379D03*
X108089394Y-168720379D03*
D11*
X124255000Y-103600000D03*
X124945000Y-103600000D03*
D10*
X140779394Y-168720379D03*
X140089394Y-168720379D03*
D12*
X146680000Y-118700000D03*
X146680000Y-117700000D03*
X146680000Y-116700000D03*
X146680000Y-115700000D03*
X146680000Y-114700000D03*
X146680000Y-113700000D03*
X146680000Y-112700000D03*
X146680000Y-111700000D03*
X146680000Y-110700000D03*
X146680000Y-109700000D03*
X146680000Y-108700000D03*
X146680000Y-107700000D03*
X146680000Y-106700000D03*
X146680000Y-105700000D03*
X146680000Y-104700000D03*
D13*
X149380000Y-121500000D03*
X149380000Y-101900000D03*
D14*
X106255000Y-203445000D03*
X106255000Y-202755000D03*
D11*
X132755000Y-108200000D03*
X133445000Y-108200000D03*
D10*
X124779394Y-152720379D03*
X124089394Y-152720379D03*
D15*
X137750000Y-118350000D03*
X137250000Y-118350000D03*
X136750000Y-118350000D03*
X136250000Y-118350000D03*
X135750000Y-118350000D03*
X135250000Y-118350000D03*
X134750000Y-118350000D03*
X134250000Y-118350000D03*
X133750000Y-118350000D03*
X133250000Y-118350000D03*
X132750000Y-118350000D03*
X132250000Y-118350000D03*
X131750000Y-118350000D03*
X131250000Y-118350000D03*
X130750000Y-118350000D03*
X130250000Y-118350000D03*
X129750000Y-118350000D03*
X129250000Y-118350000D03*
X128750000Y-118350000D03*
X128250000Y-118350000D03*
X127750000Y-118350000D03*
X127250000Y-118350000D03*
X126750000Y-118350000D03*
X126250000Y-118350000D03*
X125750000Y-118350000D03*
X125250000Y-118350000D03*
X124750000Y-118350000D03*
X124250000Y-118350000D03*
X123750000Y-118350000D03*
X123250000Y-118350000D03*
X122750000Y-118350000D03*
X122250000Y-118350000D03*
X121750000Y-118350000D03*
X121250000Y-118350000D03*
X120750000Y-118350000D03*
X120250000Y-118350000D03*
X119750000Y-118350000D03*
X119250000Y-118350000D03*
X118750000Y-118350000D03*
X118250000Y-118350000D03*
D16*
X139650000Y-115100000D03*
X116350000Y-115100000D03*
D14*
X139100000Y-203245000D03*
X139100000Y-202555000D03*
D10*
X140779394Y-152720379D03*
X140089394Y-152720379D03*
X156779394Y-168720379D03*
X156089394Y-168720379D03*
X156779394Y-136720379D03*
X156089394Y-136720379D03*
D14*
X123055000Y-187325000D03*
X123055000Y-186635000D03*
D11*
X130855000Y-111000000D03*
X131545000Y-111000000D03*
D14*
X123155000Y-203445000D03*
X123155000Y-202755000D03*
D10*
X108779394Y-136720379D03*
X108089394Y-136720379D03*
D17*
X128500000Y-109100000D03*
X129300000Y-109100000D03*
D18*
X128250000Y-109987500D03*
X128900000Y-109987500D03*
X129550000Y-109987500D03*
X129550000Y-108212500D03*
X128900000Y-108212500D03*
X128250000Y-108212500D03*
D10*
X140779394Y-136720379D03*
X140089394Y-136720379D03*
D14*
X132900000Y-110525000D03*
X132900000Y-109835000D03*
D19*
X135200000Y-109250000D03*
X135200000Y-105950000D03*
D10*
X124779394Y-136720379D03*
X124089394Y-136720379D03*
X156779394Y-152720379D03*
X156089394Y-152720379D03*
D20*
X126650000Y-103600000D03*
X132150000Y-103600000D03*
D10*
X124779394Y-168720379D03*
X124089394Y-168720379D03*
D14*
X107100000Y-187325000D03*
X107100000Y-186635000D03*
X139100000Y-187325000D03*
X139100000Y-186635000D03*
D21*
X135400000Y-110675000D03*
X135400000Y-111365000D03*
D10*
X108779394Y-152720379D03*
X108089394Y-152720379D03*
M02*
