M48
; DRILL file {KiCad 9.0.3} date 2025-08-28T23:08:13-0500
; FORMAT={-:-/ absolute / metric / decimal}
; #@! TF.CreationDate,2025-08-28T23:08:13-05:00
; #@! TF.GenerationSoftware,Kicad,Pcbnew,9.0.3
; #@! TF.FileFunction,NonPlated,1,2,NPTH
FMAT,2
METRIC
; #@! TA.AperFunction,NonPlated,NPTH,ComponentDrill
T1C2.300
; #@! TA.AperFunction,NonPlated,NPTH,ComponentDrill
T2C2.700
; #@! TA.AperFunction,NonPlated,NPTH,ComponentDrill
T3C6.250
%
G90
G05
T1
X103.0Y-135.7
X103.0Y-151.7
X103.0Y-167.7
X103.0Y-183.7
X103.0Y-199.7
X119.0Y-135.7
X119.0Y-151.7
X119.0Y-167.7
X119.0Y-183.7
X119.0Y-199.7
X135.0Y-135.7
X135.0Y-151.7
X135.0Y-167.7
X135.0Y-183.7
X135.0Y-199.7
X151.0Y-135.7
X151.0Y-151.7
X151.0Y-167.7
T2
X103.5Y-96.5
X161.5Y-96.5
T3
X103.0Y-132.0
X103.0Y-148.0
X103.0Y-164.0
X103.0Y-180.0
X103.0Y-196.0
X119.0Y-132.0
X119.0Y-148.0
X119.0Y-164.0
X119.0Y-180.0
X119.0Y-196.0
X135.0Y-132.0
X135.0Y-148.0
X135.0Y-164.0
X135.0Y-180.0
X135.0Y-196.0
X151.0Y-132.0
X151.0Y-148.0
X151.0Y-164.0
M30
